<svg xmlns="http://www.w3.org/2000/svg" width="118" height="118" viewBox="0 0 118 118"><defs><mask id="2blpb" width="2" height="2" x="-1" y="-1"><path fill="#fff" d="M24 21h70v70H24z"/><path d="M87 56c0-15.4-12.6-28-28-28S31 40.6 31 56s12.6 28 28 28 28-12.6 28-28zm7 0c0 19.25-15.75 35-35 35S24 75.25 24 56s15.75-35 35-35 35 15.75 35 35zM52 40.25L73 56 52 71.75z"/></mask><filter id="2blpa" width="150" height="153" x="-16" y="-19" filterUnits="userSpaceOnUse"><feOffset dy="3" in="SourceGraphic" result="FeOffset1517Out"/><feGaussianBlur in="FeOffset1517Out" result="FeGaussianBlur1518Out" stdDeviation="12 12"/></filter></defs><g><g><g filter="url(#2blpa)"><path fill="none" d="M87 56c0-15.4-12.6-28-28-28S31 40.6 31 56s12.6 28 28 28 28-12.6 28-28zm7 0c0 19.25-15.75 35-35 35S24 75.25 24 56s15.75-35 35-35 35 15.75 35 35zM52 40.25L73 56 52 71.75z" mask="url(&quot;#2blpb&quot;)"/><path fill-opacity=".2" d="M87 56c0-15.4-12.6-28-28-28S31 40.6 31 56s12.6 28 28 28 28-12.6 28-28zm7 0c0 19.25-15.75 35-35 35S24 75.25 24 56s15.75-35 35-35 35 15.75 35 35zM52 40.25L73 56 52 71.75z"/></g><path fill="#fff" d="M87 56c0-15.4-12.6-28-28-28S31 40.6 31 56s12.6 28 28 28 28-12.6 28-28zm7 0c0 19.25-15.75 35-35 35S24 75.25 24 56s15.75-35 35-35 35 15.75 35 35zM52 40.25L73 56 52 71.75z"/></g></g></svg>