<svg xmlns="http://www.w3.org/2000/svg" width="73" height="73" viewBox="0 0 73 73"><g><g><path fill="#fff" d="M56.7 30.225C56.7 16.1 45.064 4.65 30.711 4.65 16.36 4.65 4.725 16.1 4.725 30.225c0 14.124 11.635 25.574 25.987 25.574 14.353 0 25.987-11.45 25.987-25.574zm15.604 38.804a2.3 2.3 0 0 1 0 3.29 2.388 2.388 0 0 1-3.34 0l-18.92-18.62a30.888 30.888 0 0 1-19.332 6.75c-16.963 0-30.713-13.53-30.713-30.224C0 13.53 13.75 0 30.712 0s30.713 13.53 30.713 30.225c0 7.803-3.033 14.895-7.968 20.257L72.304 69.03zm-30.05-40.712a2.285 2.285 0 0 1 .002 4.568h-9.118v9.132a2.281 2.281 0 0 1-2.28 2.284 2.281 2.281 0 0 1-2.28-2.284v-9.132h-9.117c-1.26 0-2.28-1.63-2.28-2.89 0-1.263 1.02-1.678 2.28-1.678h9.115v-9.134a2.281 2.281 0 0 1 2.28-2.284c1.26 0 2.28 1.024 2.28 2.284v9.134z"/></g></g></svg>