<svg xmlns="http://www.w3.org/2000/svg" width="84" height="84" viewBox="0 0 84 84"><defs><clipPath id="ibsza"><path d="M0 84V0h84v84z"/></clipPath></defs><g><g><g><path fill="#fff" d="M0 84V0h84v84z"/></g><g clip-path="url(#ibsza)"><g><g><g><path fill="#a73033" d="M69.07 30.973v-16.66c2.859-1.02 4.922-3.726 4.922-6.93C73.992 3.312 70.68 0 66.61 0c-4.139 0-7.382 3.376-7.382 7.383 0 3.204 2.063 5.91 4.921 6.93v16.66L53.771 41.35l5.715 11.43 4.403-2.201-4.129-8.258 6.85-6.849 6.849 6.85-4.13 8.257 4.404 2.201 5.715-11.43z"/></g></g></g><g><g><g><path fill="#a73033" d="M14.766 24.61H9.844v-4.922h4.922zm8.55-7.955v-.003c-2.351-4.7-7.51-7.654-13.412-6.573C4.164 11.214 0 16.292 0 22.15a12.29 12.29 0 0 0 12.305 12.304c9.111 0 15.101-9.603 11.011-17.798z"/></g></g></g><g><g><g><path fill="#a73033" d="M78.914 79.078V59.063H69.07v9.843h-4.922v-9.843h-9.843v20.015H44.297v-4.922h-4.922V63.697c-3.13 3.205-7.483 5.21-12.305 5.21h-.01a17.161 17.161 0 0 1-12.294-5.198v10.447H9.844V84H84v-4.922z"/></g></g></g><g><g><g><path fill="#a73033" d="M38.082 46.183l-6.451-12.9-11.83 4.326c-2.27 1.1-4.526 1.766-7.496 1.766h-.01c-1.961-.004-3.847-.368-5.628-.983l9.391 18.784c2.096 4.191 6.307 6.799 11.012 6.808 9.212 0 15.032-9.73 11.012-17.8z"/></g></g></g><g><g><g><path fill="#a73033" d="M59.681 17.54c-3.241-2.219-5.376-5.942-5.376-10.157 0-1.979.508-3.85 1.36-5.53L21.956 7.903a17.207 17.207 0 0 1 5.762 6.549 17.238 17.238 0 0 1 .202 14.968z"/></g></g></g></g></g></g></svg>
