<svg xmlns="http://www.w3.org/2000/svg" width="84" height="72" viewBox="0 0 84 72"><defs><clipPath id="qlxra"><path d="M0 78V-6h84v84z"/></clipPath></defs><g><g><g><path fill="#fff" d="M0 78V-6h84v84z"/></g><g clip-path="url(#qlxra)"><g><path fill="#a73033" d="M74.15 24.843H9.85v-4.921h64.3zm-40.36 21.66v4.922H9.85v-4.921zm-23.94-4.93v-4.922h23.94v4.922zM66.762 10.07v4.922H17.238V10.07zM84 .218H0v61.059h50.827V55.1a14.614 14.614 0 0 1-4.624-10.672c0-8.081 6.575-14.656 14.656-14.656 8.082 0 14.656 6.575 14.656 14.656 0 4.203-1.78 7.998-4.623 10.672v6.176H84z"/></g><g><path fill="#a73033" d="M65.97 71.782V58.165c-1.592.594-3.314.92-5.11.92-1.798 0-3.52-.326-5.111-.92v13.617l5.11-2.497z"/></g><g><path fill="#a73033" d="M51.125 44.429c0 5.367 4.367 9.734 9.735 9.734 5.367 0 9.733-4.367 9.733-9.734s-4.366-9.734-9.734-9.734c-5.367 0-9.734 4.367-9.734 9.734z"/></g></g></g></g></svg>
