<svg xmlns="http://www.w3.org/2000/svg" width="60" height="84" viewBox="0 0 60 84"><defs><linearGradient id="lpkoa" x1="30" x2="30" y1="0" y2="84" gradientUnits="userSpaceOnUse"><stop offset="0" stop-color="#a73033"/><stop offset="1" stop-color="#ffc815"/></linearGradient><clipPath id="lpkob"><path d="M-12 84V0h84v84z"/></clipPath></defs><g><g><g><path fill="#fff" d="M-12 84V0h84v84z"/></g><g clip-path="url(#lpkob)"><g><g><path fill="#a73033" d="M22.64 36.832l2.795 1.567s3.933 5.158 3.933 17.186c0 0 .034.067.092.168-3.193.554-5.47 2.552-5.47 2.552-4.784 3.63-8.56 6.778-8.79 11.178h31.11c-.232-4.401-2.157-5.116-8.792-11.178-1.88-1.718-3.778-2.46-5.534-2.647.004-.563.134-13.332 2.58-16.826 1.183-1.185 2.068-1.567 2.068-1.567 5.172-3.919 8.64-11.854 9.096-20.577H14.272c.456 8.723 3.199 16.222 8.368 20.144zm16.577 2.834l-2.727 2.066 2.727 2.066c6.806 5.161 11.373 15.61 11.976 27.1H8.808c.603-11.488 5.169-21.938 11.976-27.1l2.726-2.066-2.726-2.066C13.978 34.506 9.41 24.057 8.808 12.568h42.384c-.602 11.49-5.17 21.937-11.975 27.098zM56.445 7.92h3.284V0H.27v7.92h3.285v2.055c0 12.903 4.415 24.737 11.688 31.757C7.971 48.755 3.556 60.587 3.556 73.491v2.59H.27V84H59.73v-7.92h-3.284v-2.59c0-12.903-4.417-24.735-11.689-31.758 7.272-7.02 11.689-18.852 11.689-31.757z"/></g></g></g></g></g></svg>
