<svg xmlns="http://www.w3.org/2000/svg" width="84" height="76" viewBox="0 0 84 76"><defs><linearGradient id="qkvya" x1="42" x2="42" y1="-4" y2="80" gradientUnits="userSpaceOnUse"><stop offset="0" stop-color="#a73033"/><stop offset="1" stop-color="#ffc815"/></linearGradient><clipPath id="qkvyb"><path d="M0 80V-4h84v84z"/></clipPath></defs><g><g><g><path fill="#fff" d="M0 80V-4h84v84z"/></g><g clip-path="url(#qkvyb)"><g><path fill="#a73033" d="M71.531 50.814H66.61v-4.922h4.922zm-12.304-2.46c0 5.436 4.407 9.843 9.843 9.843H84V38.509H69.07c-5.436 0-9.843 4.407-9.843 9.844z"/></g><g><path fill="#a73033" d="M64.148 62.211c-5.716-2.038-9.843-7.45-9.843-13.858s4.127-11.82 9.843-13.859V21.283H0v54.14h64.148z"/></g><g><path fill="#a73033" d="M69.07 63.119h10.008v12.305H69.07z"/></g><g><path fill="#a73033" d="M69.07 21.283h10.008v12.305H69.07z"/></g><g><path fill="#a73033" d="M42 .576L26.215 16.361h31.57z"/></g><g><path fill="#a73033" d="M6.528 16.361h12.728l9.42-9.42L22.313.575z"/></g></g></g></g></svg>
