<svg xmlns="http://www.w3.org/2000/svg" width="28" height="26" viewBox="0 0 28 26"><g><g><g><g><g><path fill="#f1b33e" d="M27.459 10.739a.579.579 0 0 0-.525-.333h-1.713C24.13 4.494 18.94 0 12.718 0 5.706 0 0 5.706 0 12.718s5.705 12.718 12.718 12.718c4.526 0 8.746-2.436 11.015-6.356a1.156 1.156 0 0 0-2.002-1.158 10.447 10.447 0 0 1-9.013 5.202c-5.737 0-10.406-4.668-10.406-10.405 0-5.738 4.669-10.406 10.406-10.406 4.942 0 9.082 3.466 10.137 8.093h-1.7a.58.58 0 0 0-.445.949l2.891 3.468a.578.578 0 0 0 .888 0l2.89-3.468a.578.578 0 0 0 .08-.616z"/></g><g><path fill="#f1b33e" d="M12.718 13.585a.868.868 0 0 1 0-1.733c.478 0 .867.389.867.867 0 .477-.39.866-.867.866zm0-10.694c-.639 0-1.156.517-1.156 1.156v7.015a2.02 2.02 0 0 0 1.157 3.68c.305 0 .593-.073.853-.195l4.022 2.32a1.156 1.156 0 0 0 1.156-2.001l-4.026-2.324a2.014 2.014 0 0 0-.849-1.479V4.047a1.158 1.158 0 0 0-1.157-1.156z"/></g></g></g></g></g></svg>