<svg xmlns="http://www.w3.org/2000/svg" width="21" height="33" viewBox="0 0 21 33"><g><g><path fill="#f1b33e" d="M18.462 29.744c0 .566-.46 1.026-1.026 1.026H3.077c-.566 0-1.026-.46-1.026-1.026v-16.41c0-.566.46-1.026 1.026-1.026h14.36c.565 0 1.025.46 1.025 1.026v16.41zM8.205 8.205h4.103v2.052H8.205zM4.103 5.128A3.08 3.08 0 0 1 7.18 2.051h6.154a3.08 3.08 0 0 1 3.077 3.077c0 .566-.46 1.026-1.026 1.026H5.128c-.566 0-1.025-.46-1.025-1.026zm10.256 5.129V8.205h1.026a3.08 3.08 0 0 0 3.077-3.077c0-2.827-2.3-5.128-5.128-5.128H7.18A5.134 5.134 0 0 0 2.05 5.128a3.08 3.08 0 0 0 3.077 3.077h1.026v2.052H3.077A3.08 3.08 0 0 0 0 13.334v16.41a3.08 3.08 0 0 0 3.077 3.077h14.36a3.08 3.08 0 0 0 3.076-3.077v-16.41a3.08 3.08 0 0 0-3.077-3.077z"/></g></g></svg>