<svg xmlns="http://www.w3.org/2000/svg" width="19" height="22" viewBox="0 0 19 22"><g><g><g><g><path fill="#f1b33e" d="M9.195 7.575c-.531 0-.91.224-.91.555v4.5c0 .284.379.567.91.567.508 0 .922-.283.922-.567v-4.5c0-.33-.414-.555-.922-.555z"/></g><g><path fill="#f1b33e" d="M9.195 4.799c-.543 0-.968.39-.968.839 0 .448.425.85.968.85.532 0 .957-.402.957-.85 0-.45-.425-.839-.957-.839z"/></g><g><path fill="#f1b33e" d="M11.228 16.366a.836.836 0 0 0-.466.335l-1.567 2.31L7.63 16.7a.836.836 0 0 0-.467-.335c-3.134-.877-5.49-3.759-5.49-7.24 0-4.146 3.375-7.519 7.523-7.519 4.149 0 7.523 3.373 7.523 7.518 0 3.486-2.36 6.365-5.49 7.24zM9.195-.064A9.187 9.187 0 0 0 0 9.126c0 4.147 2.73 7.59 6.412 8.76l2.091 3.083a.836.836 0 0 0 1.384 0l2.091-3.083c3.683-1.17 6.412-4.615 6.412-8.76 0-5.083-4.116-9.19-9.195-9.19z"/></g></g></g></g></svg>