<svg xmlns="http://www.w3.org/2000/svg" width="18" height="24" viewBox="0 0 18 24"><g><g><path fill="#f1b33e" d="M14.348 19.808a7.654 7.654 0 0 1-1.472 1.15 4.34 4.34 0 0 0-.075-3.92l-.315-.593-.599.302c-.146.074-.304.11-.47.11a1.047 1.047 0 0 1-1.029-1.055v-.507c0-.908-.31-1.8-.876-2.512l-.537-.676-3.325 4.187a4.34 4.34 0 0 0-1.006 2.712c-.01.677.138 1.333.426 1.928a7.794 7.794 0 0 1-1.498-1.19c-1.448-1.472-2.23-3.4-2.2-5.43A7.617 7.617 0 0 1 3.147 9.54l.006-.007L8.94 2.25a6.97 6.97 0 0 1 1.004 3.595v1.152c0 2.545 2.05 4.628 4.568 4.642a4.59 4.59 0 0 0 1.448-.224c.407.945.62 1.975.62 3.012a7.554 7.554 0 0 1-2.232 5.382zm-2.94-1.58c.133 0 .267-.01.398-.031.087.28.13.572.13.873 0 .791-.308 1.536-.869 2.095a2.941 2.941 0 0 1-2.092.865H8.97a2.934 2.934 0 0 1-2.098-.89 2.936 2.936 0 0 1-.857-2.114c.01-.679.255-1.339.691-1.858l2.17-2.73c.093.274.142.564.142.857v.507c0 1.33 1.072 2.418 2.39 2.426zm5.495-8.014l-.315-.592-.6.302c-.457.23-.952.346-1.468.343-1.767-.01-3.205-1.477-3.205-3.27V5.843c0-1.87-.64-3.705-1.803-5.168L8.975 0 2.092 8.666A8.991 8.991 0 0 0 0 14.294c-.035 2.4.886 4.676 2.594 6.411 1.706 1.735 3.967 2.692 6.364 2.696h.017a8.917 8.917 0 0 0 6.34-2.623 8.916 8.916 0 0 0 2.635-6.352 8.992 8.992 0 0 0-1.048-4.212z"/></g></g></svg>