<svg xmlns="http://www.w3.org/2000/svg" width="18" height="19" viewBox="0 0 18 19"><g><g><g><path fill="#f1b33e" d="M4.313 2.471c1.576 0 2.294 1.177 2.294 2.27 0 .595-.2 1.145-.564 1.55-.406.452-.996.69-1.705.69-1.616 0-2.352-1.176-2.352-2.269 0-1.115.72-2.24 2.327-2.24zm3.28 5.179c.71-.77 1.101-1.804 1.101-2.91C8.694 2.632 7.189.5 4.313.5 2.974.5 1.845.96 1.047 1.83.34 2.6-.05 3.634-.05 4.74c0 2.106 1.499 4.239 4.363 4.239 1.343 0 2.478-.46 3.28-1.329z"/></g><g><path fill="#f1b33e" d="M14.774 2.135c-.26.005-.616.168-.79.362L1.042 16.884c-.174.194-.05.466.21.466h1.694c.26 0 .616-.16.79-.353l12.86-14.385c.174-.194.163-.51-.268-.51z"/></g><g><path fill="#f1b33e" d="M13.385 17.007c-1.572 0-2.288-1.18-2.288-2.277 0-.597.2-1.15.563-1.556.405-.453.993-.693 1.7-.693 1.572 0 2.288 1.18 2.288 2.277 0 .597-.2 1.15-.563 1.556-.405.453-.993.693-1.7.693zm-.025-6.41c-1.313 0-2.42.452-3.204 1.305-.693.756-1.075 1.77-1.075 2.855 0 2.066 1.47 4.159 4.28 4.159 1.318 0 2.43-.451 3.216-1.304.697-.756 1.081-1.77 1.081-2.855 0-2.067-1.476-4.16-4.298-4.16z"/></g></g></g></svg>