<svg xmlns="http://www.w3.org/2000/svg" width="20" height="21" viewBox="0 0 20 21"><g><g><g><path fill="transparent" d="M-2 22V-2h24v24z"/></g><g><path fill="#f1b33e" d="M6.054 7.536c.72 0 1.265-.554 1.265-1.265a1.25 1.25 0 0 0-1.265-1.266c-.721 0-1.257.562-1.257 1.266 0 .711.536 1.265 1.257 1.265zm4.438 10.354L1.976 9.364a.797.797 0 0 1-.264-.633V5.198c0-.272.097-.448.264-.624l2.381-2.382c.176-.175.36-.272.624-.272h3.534c.28 0 .448.105.624.281l8.525 8.517c.58.571.598 1.186 0 1.784l-5.388 5.379c-.597.598-1.204.589-1.784.009zm-1.134 1.344c1.319 1.319 2.707 1.328 4.043 0l5.608-5.607c1.345-1.327 1.327-2.725.009-4.043L10.387.971C9.7.276 9.297.206 8.304.206h-3.34c-.967 0-1.31.229-2.022.94L.93 3.16c-.712.712-.94 1.046-.94 2.022v3.33c0 1.003.07 1.407.755 2.101z"/></g></g></g></svg>
