<svg xmlns="http://www.w3.org/2000/svg" width="26" height="24" viewBox="0 0 26 24"><g><g><g><path fill="#f1b33e" d="M23.808 14.75c0 1-.813 1.812-1.812 1.812h-1.294v3.043l-3.042-3.043h-7.05a1.814 1.814 0 0 1-1.811-1.811V9.575c0-.999.812-1.811 1.811-1.811h11.386c1 0 1.812.812 1.812 1.811zM7.246 10.807l-2.588 2.588v-3.042H3.364A1.814 1.814 0 0 1 1.553 8.54V3.365c0-1 .812-1.812 1.811-1.812h11.387c.998 0 1.811.813 1.811 1.812V6.21H10.61a3.368 3.368 0 0 0-3.364 3.364zm10.869-4.595V3.365A3.368 3.368 0 0 0 14.75 0H3.364A3.368 3.368 0 0 0 0 3.365V8.54a3.369 3.369 0 0 0 3.105 3.354v5.249l4.14-4.14v1.748a3.368 3.368 0 0 0 3.365 3.364h6.407l5.238 5.239v-5.249a3.369 3.369 0 0 0 3.105-3.354V9.575a3.368 3.368 0 0 0-3.364-3.364z"/></g><g><path fill="#f1b33e" d="M11 11v-1h11v1z"/></g><g><path fill="#f1b33e" d="M11 14v-1h11v1z"/></g></g></g></svg>