<svg xmlns="http://www.w3.org/2000/svg" width="18" height="21" viewBox="0 0 18 21"><g><g><path fill="#f1b33e" d="M16.318 17.04a.3.3 0 0 1-.3.3H4.397a.3.3 0 0 1-.3-.3V1.46a.3.3 0 0 1 .3-.3h11.621a.3.3 0 0 1 .3.3v15.58zm-2.866 2.46a.3.3 0 0 1-.3.3H1.53a.3.3 0 0 1-.3-.3V3.92a.3.3 0 0 1 .3-.3h1.366v13.42c0 .828.674 1.501 1.5 1.501h9.056zM16.018-.04H4.397c-.827 0-1.5.674-1.5 1.5v.96H1.53c-.827 0-1.5.673-1.5 1.5V19.5c0 .827.673 1.5 1.5 1.5h11.622c.827 0 1.5-.673 1.5-1.5v-.959h1.366c.828 0 1.5-.673 1.5-1.5V1.46c0-.827-.672-1.5-1.5-1.5z"/></g></g></svg>