<svg xmlns="http://www.w3.org/2000/svg" width="24" height="20" viewBox="0 0 24 20"><g><g><g><g><path fill="transparent" d="M0 21V-3h24v24z"/></g></g><g><path fill="#f1b33e" d="M14.25 14.058a2.468 2.468 0 0 1-2.47-2.479 2.463 2.463 0 0 1 2.47-2.478 2.463 2.463 0 0 1 2.47 2.478 2.463 2.463 0 0 1-2.47 2.479zm0 1.564a4.02 4.02 0 0 0 4.034-4.043 4.02 4.02 0 0 0-4.034-4.043 4.02 4.02 0 0 0-4.034 4.043 4.02 4.02 0 0 0 4.034 4.043zm-6.521 1.916c-.8 0-1.257-.422-1.257-1.266V7.976c0-.844.457-1.266 1.257-1.266h1.916c.79 0 1.195-.14 1.634-.624l.668-.738c.501-.536.765-.677 1.538-.677h1.486c.773 0 1.037.14 1.52.668l.677.747c.448.483.853.624 1.644.624h1.96c.8 0 1.256.422 1.256 1.266v8.296c0 .844-.457 1.266-1.256 1.266zm-4.5-4.342c-.81 0-1.249-.422-1.249-1.265V2.948c0-.852.44-1.274 1.249-1.274h13.034c.8 0 1.248.422 1.248 1.274v.94l-.22-.245c-.466-.484-.923-.721-1.82-.721h-2.495c-.888 0-1.354.237-1.811.72l-.703.748c-.413.44-.686.562-1.371.562H7.614c-1.898 0-2.891.985-2.891 2.865v5.38zm1.494 1.758v1.468c0 1.88.993 2.865 2.891 2.865h13.272c1.898 0 2.891-.984 2.891-2.865V7.817c0-1.88-.993-2.865-2.891-2.865h-1.617V2.79c0-1.88-.994-2.865-2.892-2.865H3.123C1.216-.075.223.9.223 2.79v9.299c0 1.88.993 2.865 2.9 2.865z"/></g></g></g></svg>
