<svg xmlns="http://www.w3.org/2000/svg" width="26" height="18" viewBox="0 0 26 18"><defs><clipPath id="t501a"><path d="M0 22V-4h26v26z"/></clipPath></defs><g><g><g><path fill="#fff" d="M0 22V-4h26v26z"/></g><g clip-path="url(#t501a)"><g><path fill="#f1b33e" d="M12.99 7.28L24.026.4a2.334 2.334 0 0 0-.367-.032H2.324c-.125 0-.247.013-.367.031z"/></g><g><path fill="#f1b33e" d="M13.685 9.94c-.014.009-.03.015-.046.024l-.049.025c-.087.045-.176.08-.267.105l-.028.006a1.33 1.33 0 0 1-.303.038h-.002c-.101 0-.202-.015-.302-.038l-.028-.006a1.341 1.341 0 0 1-.317-.13c-.015-.009-.031-.015-.046-.025L.037 2.294c-.023.13-.037.262-.037.398V14.96a2.323 2.323 0 0 0 2.323 2.324h21.335a2.323 2.323 0 0 0 2.323-2.324V2.692a2.3 2.3 0 0 0-.036-.398z"/></g></g></g></g></svg>
