<svg xmlns="http://www.w3.org/2000/svg" width="560" height="66" viewBox="0 0 560 66"><defs><mask id="ogpfb" width="2" height="2" x="-1" y="-1"><path fill="#fff" d="M12 7h545v47H12z"/><path d="M12.031 7.566h544.2L528.896 54H12.03z"/></mask><filter id="ogpfa" width="577" height="82" x="-4" y="-9" filterUnits="userSpaceOnUse"><feOffset dy="3" in="SourceGraphic" result="FeOffset1128Out"/><feGaussianBlur in="FeOffset1128Out" result="FeGaussianBlur1129Out" stdDeviation="2.4 2.4"/></filter><clipPath id="ogpfc"><path d="M-7 66V0h66v66z"/></clipPath></defs><g><g><g><g filter="url(#ogpfa)"><path fill="none" d="M12.031 7.566h544.2L528.896 54H12.03z" mask="url(&quot;#ogpfb&quot;)"/><path fill-opacity=".16" d="M12.031 7.566h544.2L528.896 54H12.03z"/></g><path fill="#fff" d="M12.031 7.566h544.2L528.896 54H12.03z"/></g><g><g><path fill="#a73033" d="M-7 66V0h66v66z"/></g><g clip-path="url(#ogpfc)"><g><path fill="#a73033" d="M26.254 37.64c-7.43 0-13.45-6.021-13.45-13.45 0-7.43 6.02-13.452 13.45-13.452S39.706 16.76 39.706 24.19c0 7.429-6.022 13.45-13.452 13.45zm0-37.262v-.01c-.07 0-.14.004-.21.004-.07 0-.139-.004-.21-.004v.01C11.635.604.193 12.176.193 26.428c0 19.207 22.55 37.438 25.851 40.028 3.302-2.59 25.851-20.821 25.851-40.027 0-14.253-11.442-25.825-25.64-26.05z"/></g></g></g><g><g><text dominant-baseline="text-before-edge" style="line-height:28px;font-kerning:normal" fill="#17222f" font-family="'Montserrat','Montserrat-Regular'" font-size="18" font-style="none" font-weight="400" transform="translate(64 19)"><tspan>г. Железнодорожный, ул. Промышленна</tspan><tspan>я д. 37</tspan></text></g></g></g></g></svg>