<svg xmlns="http://www.w3.org/2000/svg" width="52" height="66" viewBox="0 0 52 66" fill="#ffffff">
  <g>
    <g>
      <path fill="#a73033" d="M26.254 37.64c-7.43 0-13.45-6.021-13.45-13.45 0-7.43 6.02-13.452 13.45-13.452S39.706 16.76 39.706 24.19c0 7.429-6.022 13.45-13.452 13.45zm0-37.262v-.01c-.07 0-.14.004-.21.004-.07 0-.139-.004-.21-.004v.01C11.635.604.193 12.176.193 26.428c0 19.207 22.55 37.438 25.851 40.028 3.302-2.59 25.851-20.821 25.851-40.027 0-14.253-11.442-25.825-25.64-26.05z"/>
    </g>
  </g>
</svg>
