<svg xmlns="http://www.w3.org/2000/svg" width="24" height="26" viewBox="0 0 24 26"><defs><clipPath id="b4exa"><path d="M0 26V0h24v26z"/></clipPath></defs><g><g><g><path fill="#fff" d="M0 26V0h24v26z"/></g><g clip-path="url(#b4exa)"><g><g><path fill="#f1b33e" d="M18.394 17.489c-.79-.842-1.777-.842-2.563 0-.599.64-1.198 1.28-1.787 1.932-.16.179-.297.217-.493.097-.388-.228-.8-.412-1.173-.662-1.737-1.178-3.192-2.692-4.481-4.396-.64-.847-1.208-1.753-1.606-2.774-.08-.206-.066-.342.09-.51.6-.624 1.184-1.264 1.773-1.905.82-.89.82-1.932-.005-2.828-.469-.51-.937-1.01-1.405-1.52-.483-.52-.962-1.047-1.45-1.563-.79-.83-1.777-.83-2.563.006-.604.64-1.183 1.297-1.797 1.927-.569.58-.856 1.291-.916 2.122-.096 1.351.211 2.627.644 3.87.886 2.572 2.236 4.857 3.872 6.953 2.21 2.833 4.848 5.074 7.934 6.692 1.39.727 2.83 1.286 4.396 1.378 1.077.065 2.013-.228 2.764-1.134.513-.619 1.092-1.183 1.636-1.775.805-.88.81-1.943.01-2.811-.957-1.037-1.918-2.068-2.88-3.1z"/></g><g><path fill="#f1b33e" d="M17.432 13.163l1.858-.342a9.206 9.206 0 0 0-2.32-4.83c-1.295-1.396-2.93-2.275-4.733-2.546l-.262 2.013c1.395.212 2.663.89 3.665 1.97a7.104 7.104 0 0 1 1.792 3.735z"/></g><g><path fill="#f1b33e" d="M20.337 4.457C18.193 2.145 15.48.685 12.483.234l-.261 2.014c2.587.39 4.934 1.655 6.786 3.647 1.757 1.894 2.91 4.288 3.328 6.92l1.858-.342c-.488-3.05-1.823-5.818-3.857-8.016z"/></g></g></g></g></g></svg>
