<svg xmlns="http://www.w3.org/2000/svg" width="28" height="29" viewBox="0 0 28 29"><g><g><g><g><g><path fill="#f1b33e" d="M16.707 26.083c-.229.057-.462.107-.694.15a1.119 1.119 0 0 0 .407 2.198c.276-.051.554-.112.828-.18a1.117 1.117 0 1 0-.54-2.168z"/></g><g><path fill="#f1b33e" d="M24.972 11.103a1.114 1.114 0 0 0 1.412.71c.586-.195.903-.827.71-1.412a13.898 13.898 0 0 0-.291-.796 1.118 1.118 0 1 0-2.075.83c.087.22.17.444.244.668z"/></g><g><path fill="#f1b33e" d="M20.339 24.487c-.197.13-.4.256-.606.374a1.118 1.118 0 0 0 1.117 1.936c.244-.14.486-.29.72-.445a1.118 1.118 0 0 0-1.231-1.865z"/></g><g><path fill="#f1b33e" d="M27.788 14.225a1.118 1.118 0 0 0-2.233.087c.01.236.012.475.006.711a1.116 1.116 0 0 0 1.093 1.142 1.117 1.117 0 0 0 1.142-1.093c.006-.281.003-.566-.008-.847z"/></g><g><path fill="#f1b33e" d="M24.79 21.547a1.117 1.117 0 0 0-1.566.223c-.141.19-.29.376-.444.556a1.118 1.118 0 0 0 1.702 1.449c.183-.215.36-.438.53-.663.37-.494.27-1.194-.223-1.565z"/></g><g><path fill="#f1b33e" d="M26.432 17.507a1.117 1.117 0 0 0-1.4.732c-.071.225-.15.451-.234.673a1.118 1.118 0 0 0 2.088.796c.1-.264.194-.533.278-.8a1.118 1.118 0 0 0-.732-1.4z"/></g><g><path fill="#f1b33e" d="M11.832 26.243c-1-.18-1.958-.485-2.867-.91-.01-.006-.02-.013-.031-.018-.215-.1-.428-.209-.636-.322l-.003-.001a11.92 11.92 0 0 1-1.112-.695C1.926 20.594.663 13.304 4.366 8.047a11.613 11.613 0 0 1 2.866-2.852l.04-.027c3.829-2.638 9.027-2.816 13.092-.105l-.873 1.261c-.243.351-.093.607.332.569l3.792-.34a.625.625 0 0 0 .566-.817l-1.019-3.67c-.114-.41-.406-.46-.649-.109l-.875 1.265a13.801 13.801 0 0 0-10.113-2.15c-.357.061-.71.137-1.058.225l-.007.001-.04.012a13.78 13.78 0 0 0-7.641 5.12c-.016.02-.033.039-.048.06a13.18 13.18 0 0 0-.483.696c-.012.018-.021.036-.032.054a13.778 13.778 0 0 0-2.202 8.126v.029c.013.28.035.564.065.844.002.018.006.035.009.053.031.282.07.564.12.846a13.792 13.792 0 0 0 3.888 7.479l.015.015.005.004c.546.539 1.14 1.037 1.78 1.488a13.779 13.779 0 0 0 5.541 2.319 1.117 1.117 0 1 0 .395-2.2z"/></g><g><path fill="#f1b33e" d="M13.214 5.734c-.5 0-.905.405-.905.904v9.009l8.239 4.259a.904.904 0 0 0 .83-1.606l-7.26-3.754V6.638a.904.904 0 0 0-.904-.904z"/></g></g></g></g></g></svg>