<svg xmlns="http://www.w3.org/2000/svg" width="126" height="72" viewBox="0 0 126 72"><g><g><g><g><g><path fill="#fff" d="M4.949.11A4.918 4.918 0 0 0 .03 5.026V66.5a4.918 4.918 0 1 0 9.835 0V5.027A4.918 4.918 0 0 0 4.95.11z"/></g></g></g><g><g><g><path fill="#fff" d="M121.007.11a4.918 4.918 0 0 0-4.918 4.917V66.5a4.918 4.918 0 1 0 9.836 0V5.027A4.918 4.918 0 0 0 121.007.11z"/></g></g></g><g><g><g><path fill="#fff" d="M86.337 30.845H22.36L36.443 16.88a4.917 4.917 0 1 0-6.926-6.983l-15.285 15.16a14.635 14.635 0 0 0-4.366 10.461c0 3.954 1.55 7.67 4.366 10.462l15.285 15.16a4.902 4.902 0 0 0 3.462 1.425 4.918 4.918 0 0 0 3.463-8.41L22.858 40.682h63.48a4.918 4.918 0 1 0 0-9.836z"/></g></g></g><g><g><g><path fill="#fff" d="M111.724 25.055L96.439 9.895a4.918 4.918 0 1 0-6.926 6.984l15.285 15.16a4.87 4.87 0 0 1 1.456 3.478 4.87 4.87 0 0 1-1.456 3.478l-15.285 15.16a4.918 4.918 0 1 0 6.926 6.983l15.285-15.16a14.635 14.635 0 0 0 4.365-10.461c0-3.954-1.55-7.67-4.365-10.462z"/></g></g></g></g></g></svg>