<svg xmlns="http://www.w3.org/2000/svg" width="50" height="112" viewBox="0 0 50 112"><g><g><g><path fill="#fff" d="M20.904 67.941h7.394v4.722h-7.394zM7.185 49.353l11.355-27.28h12.122l11.355 27.28-6.74 12.111H13.925zM24.601 90.88h3.239V79.14h6.935V67.94h4.31l10.117-18.18-2.55-6.127V.856h-6.477v27.217l-5.193-12.477H14.22L9.027 28.073V.856H2.55v42.778L0 49.76l10.116 18.18h4.312v11.2h6.935v5.657c-5.877 1.454-10.246 6.772-10.246 13.091 0 7.435 6.049 13.484 13.484 13.484s13.484-6.049 13.484-13.484h-6.477a7.015 7.015 0 0 1-7.007 7.007 7.015 7.015 0 0 1-7.007-7.007 7.015 7.015 0 0 1 7.007-7.007z"/></g><g><path fill="#fff" d="M24.601 51.265a3.132 3.132 0 0 1-3.129-3.129 3.133 3.133 0 0 1 3.13-3.129 3.132 3.132 0 0 1 3.128 3.13 3.133 3.133 0 0 1-3.129 3.128zm0-12.735c-5.297 0-9.606 4.31-9.606 9.606 0 5.297 4.31 9.606 9.606 9.606 5.297 0 9.606-4.309 9.606-9.606s-4.31-9.606-9.606-9.606z"/></g></g></g></svg>