<svg xmlns="http://www.w3.org/2000/svg" width="62" height="109" viewBox="0 0 62 109"><g><g><g><g><g><path fill="#fff" d="M61.564 5.04A4.223 4.223 0 0 0 57.341.815H4.548a4.223 4.223 0 1 0 0 8.447H57.34a4.223 4.223 0 0 0 4.223-4.224z"/></g></g></g><g><g><g><path fill="#fff" d="M61.564 104.713a4.223 4.223 0 0 0-4.223-4.224H4.548a4.223 4.223 0 1 0 0 8.447H57.34a4.223 4.223 0 0 0 4.223-4.223z"/></g></g></g><g><g><g><path fill="#fff" d="M35.168 74.938V19.994l11.994 12.093a4.223 4.223 0 1 0 5.998-5.948L40.14 13.012a12.57 12.57 0 0 0-8.985-3.75 12.57 12.57 0 0 0-8.984 3.75L9.15 26.14a4.21 4.21 0 0 0-1.225 2.974 4.223 4.223 0 0 0 7.222 2.974L26.721 20.42v54.518a4.223 4.223 0 1 0 8.447 0z"/></g></g></g><g><g><g><path fill="#fff" d="M40.14 96.74l13.02-13.127a4.223 4.223 0 1 0-5.998-5.948l-13.02 13.127a4.183 4.183 0 0 1-2.987 1.25 4.182 4.182 0 0 1-2.987-1.25l-13.02-13.127a4.223 4.223 0 1 0-5.997 5.948l13.02 13.127a12.569 12.569 0 0 0 8.984 3.75 12.57 12.57 0 0 0 8.985-3.75z"/></g></g></g></g></g></svg>