<svg xmlns="http://www.w3.org/2000/svg" width="254" height="254" viewBox="0 0 254 254"><g><g><g><g><g><path fill="#f1b33e" d="M67.444 222.664a4.96 4.96 0 0 0-4.96 4.96 4.96 4.96 0 0 0 4.96 4.959 4.96 4.96 0 0 0 4.96-4.96 4.96 4.96 0 0 0-4.96-4.959z"/></g></g></g><g><g><g><path fill="#f1b33e" d="M136.872 222.664H87.28a4.959 4.959 0 1 0 0 9.919h49.592a4.959 4.959 0 1 0 0-9.919z"/></g></g></g><g><g><g><path fill="#f1b33e" d="M243.989 79.346H131.912V59.929L243.99 69.04zm-19.837 28.048l-4.96 4.959-4.958-4.96V89.265h9.918zm-96.796-57.786c-.064-.005-.128-.003-.192-.006-.07-.003-.14-.01-.21-.01h-9.919V16.4L217.043 56.9zm19.434 163.138a4.965 4.965 0 0 1 4.959 4.96v26.283H52.567v-26.284a4.965 4.965 0 0 1 4.959-4.959h89.264zM9.918 79.346V68.795l62.485-8.56v19.11H9.918zM52.567 109.1h-32.73V89.264h32.73zM87.28 20.038v29.553h-9.918c-.023 0-.046.003-.07.004-.063 0-.126.005-.19.008-.065.003-.13.005-.194.011-.05.004-.099.011-.148.017l-.071.006-48.88 6.696zm-4.959 80.632V66.777l32.906 33.893zm6.768 9.918h32.905v33.893zM82.32 151.75v-33.893l32.906 33.893zm32.906 51.079H82.321v-33.893zm-26.138-41.16h32.905v33.892zm32.905-102.159v33.893L89.09 59.509h32.905zM97.2 14.877c0-2.828 2.32-4.959 4.959-4.959 2.723 0 4.959 2.21 4.959 4.96V49.59h-9.918zm156.707 49.57a4.984 4.984 0 0 0-3.182-4.61L111.856 3.603A14.772 14.772 0 0 0 102.158 0C97 0 92.202 2.727 89.51 7.057L2.376 60.235A5.006 5.006 0 0 0 0 64.47v19.836c0 2.739 2.22 4.96 4.96 4.96h4.958v24.795c0 2.739 2.22 4.959 4.96 4.959h42.648c2.739 0 4.959-2.22 4.959-4.96V89.265h9.918v113.564H57.526c-8.204 0-14.878 6.674-14.878 14.877v31.243a4.96 4.96 0 0 0 4.96 4.959h109.1a4.96 4.96 0 0 0 4.96-4.96v-31.242c0-8.203-6.675-14.877-14.878-14.877h-14.877V89.264h72.403v20.184a4.96 4.96 0 0 0 1.452 3.506l8.466 8.466v29.691c-5.773 2.047-9.918 7.562-9.918 14.028 0 8.203 6.674 14.877 14.877 14.877 5.733 0 11.017-3.351 13.462-8.538a4.96 4.96 0 0 0-8.972-4.228 4.984 4.984 0 0 1-4.49 2.848 4.965 4.965 0 0 1-4.96-4.96 4.965 4.965 0 0 1 4.96-4.959c2.739 0 4.959-2.22 4.959-4.959v-33.8l8.466-8.465a4.96 4.96 0 0 0 1.452-3.507V89.264h14.878c2.739 0 4.959-2.22 4.959-4.959V64.468l-.001-.02z"/></g></g></g></g></g></svg>