<svg xmlns="http://www.w3.org/2000/svg" width="268" height="267" viewBox="0 0 268 267"><g><g><g><g><path fill="#f1b33e" d="M223.056 211.12zm-27.142-27.142a71.171 71.171 0 0 0 10.093-36.62c0-6.214-.802-12.394-2.383-18.369l-4.362-16.6-9.643 14.166c-.028.04-1.497 2.122-4.431 5.032-.26-7.647-1.182-17.162-3.616-27.066-7.686-31.265-26.593-51.135-54.678-57.462l-12.684-2.857 3.418 12.545c6.767 24.836 2.965 40.56-2.767 46.178L56.753 44.817c21.492-18.864 48.762-29.172 77.62-29.172 31.481 0 61.077 12.259 83.337 34.519 22.26 22.26 34.519 51.856 34.519 83.336 0 28.858-10.309 56.129-29.173 77.62zM51.037 216.836c-22.26-22.26-34.519-51.856-34.519-83.336 0-28.858 10.309-56.129 29.173-77.62l39.117 39.116c-10.719 15.161-12.249 29.439-11.297 39.545l-9.425-12.259-1.174 21.03a73.344 73.344 0 0 0-.116 4.046c0 32.693 22.023 60.34 52.014 68.882-9.749-6.402-16.203-17.426-16.203-29.935a35.854 35.854 0 0 1 11.888-26.641l6.415-5.76 5.11 6.943c.7.95 1.226 1.365 1.486 1.532.539-.349 1.675-1.543 2.398-3.841 1.273-4.047.428-8.637-2.26-12.28l-10.829-14.674 18.095 2.267c1.042.13 10.448 1.481 19.946 8.62 8.824 6.63 19.342 19.619 19.342 43.834 0 12.51-6.454 23.533-16.203 29.935 12.525-3.567 23.658-10.469 32.38-19.676l25.62 25.62c-21.493 18.863-48.763 29.171-77.621 29.171-31.48 0-61.077-12.259-83.337-34.519zM228.773 39.101C203.557 13.887 170.033 0 134.373 0 98.715 0 65.19 13.887 39.975 39.1 14.76 64.317.874 97.84.874 133.5c0 35.66 13.886 69.184 39.1 94.4 25.216 25.213 58.74 39.1 94.4 39.1 35.659 0 69.183-13.887 94.399-39.1 25.214-25.216 39.1-58.74 39.1-94.4 0-35.66-13.886-69.184-39.1-94.4z"/></g></g></g></g></svg>