<svg xmlns="http://www.w3.org/2000/svg" width="268" height="268" viewBox="0 0 268 268"><g><g><g><path fill="#f1b33e" d="M133.722 31.898c56.452 0 102.38 45.928 102.38 102.38 0 21.75-6.978 43.002-19.755 60.462l-32.451-32.45c4.777-8.536 7.284-18.134 7.284-28.012a57.734 57.734 0 0 0-4.83-23.079l6.469-6.47a5.222 5.222 0 0 0 0-7.387l-5.642-5.641c.447-.357.863-.71 1.253-1.043 1.534-1.302 2.744-2.328 4.6-2.826a5.224 5.224 0 0 0-2.704-10.092c-4.124 1.106-6.744 3.332-8.658 4.956-.874.74-1.467 1.224-1.96 1.537l-9.05-9.054a5.225 5.225 0 0 0-7.387 0l-6.47 6.47a57.7 57.7 0 0 0-23.08-4.831 57.232 57.232 0 0 0-28.012 7.286l-32.451-32.45a102.605 102.605 0 0 1 60.464-19.756zm40.627 61.75l.006.003 7.384 7.385-5.39 5.388a5.225 5.225 0 0 0-.935 6.114c3.53 6.755 5.32 14.068 5.32 21.74 0 7.075-1.576 13.971-4.588 20.264l-62.688-62.688a46.849 46.849 0 0 1 20.264-4.587c7.672 0 14.985 1.79 21.738 5.321a5.228 5.228 0 0 0 6.114-.936l5.39-5.39zm-73.103.766l72.344 72.344a.13.13 0 0 0 .016.018l39.54 39.538a5.217 5.217 0 0 0 3.944 1.524 5.229 5.229 0 0 0 3.78-1.898c16.56-20.114 25.68-45.565 25.68-71.662 0-30.137-11.737-58.47-33.047-79.78-21.31-21.31-49.644-33.047-79.781-33.047-26.097 0-51.548 9.118-71.662 25.678a5.214 5.214 0 0 0-1.898 3.781 5.217 5.217 0 0 0 1.524 3.945z"/></g><g><path fill="#f1b33e" d="M133.722 181.29c-25.922 0-47.012-21.09-47.012-47.012a46.842 46.842 0 0 1 4.587-20.263l62.688 62.688a46.836 46.836 0 0 1-20.263 4.587zM50.354 60.719a5.23 5.23 0 0 0-3.781 1.897c-16.56 20.117-25.679 45.565-25.679 71.662 0 53.774 38.24 100.328 90.928 110.696a5.222 5.222 0 1 0 2.016-10.25c-47.801-9.406-82.497-51.65-82.497-100.446 0-21.749 6.978-43.002 19.755-60.462l32.451 32.451c-4.776 8.535-7.284 18.134-7.284 28.011 0 31.682 25.775 57.459 57.459 57.459 9.877 0 19.478-2.508 28.01-7.284l32.454 32.45c-12.051 8.823-25.969 14.95-40.576 17.826a5.223 5.223 0 1 0 2.016 10.25c18.182-3.578 35.389-11.721 49.758-23.55a5.222 5.222 0 0 0 .373-7.727l-39.537-39.537c-.006-.008-.015-.015-.02-.023l-72.342-72.341c-.008-.006-.014-.014-.023-.023L54.298 62.241a5.21 5.21 0 0 0-3.944-1.522z"/></g><g><path fill="#f1b33e" d="M228.277 39.723C203.021 14.466 169.44.557 133.722.557c-28.168 0-55.114 8.661-77.928 25.048a5.224 5.224 0 0 0 6.094 8.484c21.027-15.103 45.867-23.085 71.834-23.085 67.973 0 123.274 55.301 123.274 123.274s-55.301 123.275-123.274 123.275c-67.975 0-123.275-55.3-123.275-123.275 0-25.97 7.984-50.81 23.087-71.835a5.224 5.224 0 1 0-8.484-6.095C8.662 79.158 0 106.106 0 134.278c0 35.718 13.91 69.3 39.166 94.556C64.423 254.09 98.004 268 133.722 268c35.717 0 69.299-13.91 94.555-39.166 25.257-25.257 39.166-58.838 39.166-94.556 0-35.717-13.91-69.299-39.166-94.555z"/></g><g><path fill="#f1b33e" d="M42.861 48.637a5.225 5.225 0 0 0 3.695-8.917 5.224 5.224 0 0 0-7.388 0l-.002.003a5.222 5.222 0 0 0 3.695 8.914z"/></g><g><path fill="#f1b33e" d="M133.722 236.659a5.221 5.221 0 0 0-5.222 5.223 5.225 5.225 0 0 0 10.45 0 5.223 5.223 0 0 0-5.224-5.223z"/></g></g></g></svg>