<svg xmlns="http://www.w3.org/2000/svg" width="84" height="84" viewBox="0 0 84 84"><defs><linearGradient id="9017a" x1="42" x2="42" y1="0" y2="84" gradientUnits="userSpaceOnUse"><stop offset="0" stop-color="#a73033"/><stop offset="1" stop-color="#ffc815"/></linearGradient><linearGradient id="9017b" x1="58.35" x2="58.35" y1="7.24" y2="16.43" gradientUnits="userSpaceOnUse"><stop offset="0" stop-color="#a73033"/><stop offset="1" stop-color="#ffc815"/></linearGradient><linearGradient id="9017c" x1="25.65" x2="25.65" y1="7.24" y2="16.43" gradientUnits="userSpaceOnUse"><stop offset="0" stop-color="#a73033"/><stop offset="1" stop-color="#ffc815"/></linearGradient></defs><g><g clip-path="url(#clip-e397cf38-2193-4c2a-a2f2-8f4f6e869e4e)"><g><g><g><path fill="url(#9017a)" d="M47.895 72.814l-3.8-8.547.01-.001c4.852-.59 9.157-3.183 12.54-6.863l.01-.01.629 2.512zM36.71 81.198L37.548 77h8.905l.356 1.774.483 2.415zm-9.991-21.293l.628-2.512.01.01c3.384 3.68 7.689 6.273 12.541 6.863h.009l-3.8 8.548zM22.4 37.8v-5.6h39.2v5.6c0 6.304-2.23 11.852-5.529 16.013-.049.048-.113.077-.155.132-.482.616-.98 1.197-1.492 1.743l-.009.008c-.34.36-.694.68-1.047 1.01C49.946 59.79 45.882 61.6 42 61.6c-3.88 0-7.945-1.809-11.368-4.894-.351-.33-.706-.65-1.046-1.01l-.008-.008a25.507 25.507 0 0 1-1.494-1.743c-.042-.055-.105-.084-.154-.132-3.298-4.16-5.53-9.709-5.53-16.013zm57.44 31.92c-8.398-4.42-14.823-6.874-20.529-7.843l.622-.854c.243-.336.326-.76.227-1.162l-1.301-5.198C62.342 49.752 64.4 43.617 64.4 37.8v-5.6h4.2a1.4 1.4 0 1 0 0-2.8h-1.4V28c0-3.9-.918-7.574-2.565-10.842l-12.57 2.417a1.404 1.404 0 0 1-1.253-.384 1.406 1.406 0 0 1-.387-1.254l2.296-12.054A27.118 27.118 0 0 0 49 4.519v-.297A4.227 4.227 0 0 0 44.778 0h-5.554A4.227 4.227 0 0 0 35 4.222v.297c-1.295.368-2.534.83-3.72 1.364l2.296 12.054c.087.456-.059.925-.386 1.254a1.405 1.405 0 0 1-1.255.384l-12.569-2.416A23.993 23.993 0 0 0 16.8 28v1.4h-1.4a1.4 1.4 0 1 0 0 2.8h4.2v5.6c0 5.817 2.06 11.952 5.541 16.863l-1.299 5.198c-.1.402-.017.826.227 1.162l.622.854c-5.707.969-12.131 3.423-20.53 7.843a7.767 7.767 0 0 0-4.16 6.894V82.6A1.4 1.4 0 0 0 1.4 84h34.125c.001 0 .001-.002.003-.002l12.885-.01c.023 0 .04.012.063.012H82.6a1.4 1.4 0 0 0 1.4-1.4v-5.986a7.766 7.766 0 0 0-4.16-6.894z"/></g><g><path fill="url(#9017b)" d="M55.313 7.241l-1.752 9.193 9.58-1.843c-1.989-2.955-4.649-5.46-7.828-7.35z"/></g><g><path fill="url(#9017c)" d="M28.688 7.241c-3.179 1.89-5.839 4.395-7.828 7.35l9.58 1.843z"/></g></g></g></g></g></svg>