<svg xmlns="http://www.w3.org/2000/svg" width="84" height="62" viewBox="0 0 84 62"><defs><linearGradient id="ml0da" x1="42" x2="42" y1=".64" y2="61.36" gradientUnits="userSpaceOnUse"><stop offset="0" stop-color="#a73033"/><stop offset="1" stop-color="#ffc815"/></linearGradient></defs><g><g><path fill="url(#ml0da)" d="M66.513 38.023l.064.037c1.434 1.447 1.434 3.79 0 5.225-1.44 1.435-3.788 1.435-5.219 0-.013-.013-6.057-6.237-6.541-5.75-.477.48 5.632 6.864 5.658 6.941 1.2 1.444 1.171 3.586-.183 4.94-1.392 1.393-3.62 1.402-5.068.1-.013 0-8.062-7.512-8.561-7.016-.493.493 5.987 6.266 5.987 6.266.109.112.403.394.474.461a3.7 3.7 0 0 1 0 5.219 3.702 3.702 0 0 1-5.22 0c-.12-.125-6.657-6.926-7.067-6.512-.412.416 4.718 5.782 4.77 5.833a3.707 3.707 0 0 1 0 5.222 3.7 3.7 0 0 1-5.223 0 63.844 63.844 0 0 1-1.94-2.09c-.003-.007-.01-.007-.013-.007.42-2.619-.272-5.334-2.22-7.335a8.235 8.235 0 0 0-3.59-2.151 8.22 8.22 0 0 0-2.124-3.896 8.15 8.15 0 0 0-3.44-2.1 8.004 8.004 0 0 0-2.009-3.557 8.117 8.117 0 0 0-3.44-2.097 8.02 8.02 0 0 0-2.006-3.564c-3.242-3.338-9.148-3.302-12.71.091A9.568 9.568 0 0 0 4.537 36C2.39 35.122 0 34.43 0 34.43V5.334l8.37 2.915c4.344 1.757 7.39-.194 7.39-.194S26.5 1.019 31.64 1.019c5.142 0 7.49 2.975 7.49 2.975s-7.705 4.098-11.053 6.414c-2.38 1.486-3.976 4.103-3.976 7.11 0 4.634 3.763 8.362 8.402 8.392.81.006 2.538-.384 4.937-1.642 2.184-1.028 5.086-2.374 7.34-3.362 3.211-1.409 5.648 1.017 5.648 1.017 8.106 8.124 1.02 1.036 16.085 16.1zM28.49 51.25c1.735-.544 3.616-.243 4.878 1.051 1.828 1.886 1.629 5.036-.45 7.024-2.083 1.989-6.35 2.962-8.196.858-1.848-2.088-.41-3.95.263-5.68-1.742.542-4.38 1.582-5.99-.37-1.596-1.947-.307-3.59.144-5.188-1.619.366-3.927 1.64-5.585-.46-1.66-2.1-.312-3.593.138-5.197-1.617.369-3.738 1.652-5.584-.457-1.849-2.12-.522-5.722 1.55-7.71 2.082-1.985 5.253-2.065 7.085-.185 1.17 1.203 1.42 2.913.97 4.517 1.62-.375 3.316-.055 4.483 1.133 1.17 1.207 1.42 2.917.967 4.523 1.62-.37 3.318-.057 4.482 1.134 1.295 1.332 1.52 3.272.845 5.007zM84 8.167v25.427s-5.442 1.073-6.563 1.214c-1.118.14-4.63 1.274-7.175-1.172-3.925-3.762-17.872-17.632-17.872-17.632s-2.404-2.36-6.265-.32c-3.545 1.868-8.799 4.606-10.993 5.672-4.148 2.208-7.587-1.295-7.587-3.964 0-2.07 1.292-3.475 3.138-4.508 5.004-3.033 15.55-8.953 19.943-11.287 2.67-1.42 4.594-1.542 8.26 1.546 4.515 3.797 8.533 7.258 8.533 7.258s1.31 1.094 3.4.653C75.95 9.97 84 8.167 84 8.167z"/></g></g></svg>