<svg xmlns="http://www.w3.org/2000/svg" width="480" height="154" viewBox="0 0 480 154"><g><g><g><g><path fill="#b5212e" d="M0 85.013h8.783v34.098c0 2.238.38 4.344 1.145 6.319a15.446 15.446 0 0 0 3.283 5.185c1.426 1.484 3.14 2.653 5.143 3.508 2.002.856 4.241 1.284 6.718 1.284 2.502 0 4.754-.429 6.755-1.284 2.002-.855 3.703-2.024 5.105-3.508 1.4-1.483 2.476-3.213 3.227-5.185.75-1.975 1.126-4.081 1.126-6.32V85.014h3.867v34.098c0 2.69-.432 5.224-1.295 7.6-.863 2.375-2.22 4.463-4.072 6.263-1.851 1.797-4.222 3.217-7.113 4.262-2.89 1.044-6.362 1.567-10.416 1.567-3.603 0-6.793-.523-9.57-1.567-2.778-1.045-5.104-2.47-6.98-4.283a17.9 17.9 0 0 1-4.26-6.334c-.964-2.415-1.445-4.98-1.445-7.695V85.013z"/></g><g><path fill="#b5212e" d="M57.35 85.013h4.915l34.267 38.398h.339V85.013h3.865V138.8H98.71L61.59 96.064h-.299v41.492h-3.94V85.013z"/></g><g><path fill="#b5212e" d="M113.874 85.013h8.782v52.543h-8.782z"/></g><g><path fill="#b5212e" d="M153.976 134.275c-2.315-1.257-4.248-3.004-5.799-5.244-1.55-2.236-2.72-4.896-3.509-7.977-.787-3.079-1.182-6.443-1.182-10.089 0-3.596.394-6.897 1.182-9.902.787-3.005 1.957-5.595 3.509-7.77 1.552-2.175 3.485-3.867 5.799-5.074 2.314-1.207 4.998-1.81 8.052-1.81 2.977 0 5.617.603 7.919 1.81 2.302 1.207 4.234 2.899 5.799 5.074 1.563 2.175 2.751 4.766 3.564 7.77.813 3.005 1.22 6.306 1.22 9.902 0 3.646-.407 6.945-1.22 9.9-.813 2.954-2.008 5.508-3.583 7.657a18.432 18.432 0 0 1-5.818 5.186c-2.304 1.308-4.93 2.125-7.883 2.451-3.054 0-5.737-.628-8.05-1.884zm36.2 19.726h-.003zm-.003 0v-1.397c-2.526 0-4.94-.432-7.243-1.302-2.302-.867-4.398-1.992-6.287-3.375-1.89-1.384-3.508-2.95-4.86-4.696-1.351-1.75-2.314-3.49-2.89-5.225a23.72 23.72 0 0 0 5.969-2.055 27.155 27.155 0 0 0 5.216-3.413 29.296 29.296 0 0 0 4.336-4.47 29.06 29.06 0 0 0 5.367-11.051c.488-2 .732-4.018.732-6.055 0-2.49-.325-4.89-.975-7.205a26.27 26.27 0 0 0-2.796-6.486 27.23 27.23 0 0 0-10.134-9.75 30.181 30.181 0 0 0-6.85-2.735c-2.452-.653-5.03-.98-7.732-.98-2.701 0-5.286.325-7.75.98-2.465.654-4.755 1.564-6.868 2.734a26.499 26.499 0 0 0-5.724 4.243 27.526 27.526 0 0 0-4.374 5.508 26.298 26.298 0 0 0-2.795 6.486 26.5 26.5 0 0 0-.976 7.205c0 2.892.502 5.772 1.502 8.639 1 2.867 2.395 5.52 4.184 7.96a29.067 29.067 0 0 0 6.4 6.353 23.106 23.106 0 0 0 8.181 3.792c.951 1.156 2.158 2.364 3.622 3.62 1.464 1.258 3.116 2.49 4.955 3.697a58.348 58.348 0 0 0 6.005 3.431 58.7 58.7 0 0 0 6.793 2.869 50.345 50.345 0 0 0 7.357 1.96 41.46 41.46 0 0 0 7.635.718z"/></g><g><path fill="#b5212e" d="M231.949 111.454c0 3.696.55 7.004 1.65 9.92 1.102 2.917 2.614 5.39 4.542 7.412 1.927 2.024 4.21 3.571 6.85 4.64 2.64 1.068 5.498 1.603 8.575 1.603 1.828 0 3.592-.36 5.293-1.076a20.686 20.686 0 0 0 4.748-2.792 23.385 23.385 0 0 0 3.921-3.884c1.152-1.446 2.103-2.91 2.853-4.393l3.678 2.375a35.045 35.045 0 0 1-3.809 5.092 24.93 24.93 0 0 1-5.087 4.319c-1.926 1.245-4.103 2.245-6.53 3-2.426.755-5.142 1.133-8.144 1.133-2.878 0-5.593-.335-8.145-1.001-2.552-.666-4.897-1.597-7.037-2.792a26.047 26.047 0 0 1-5.742-4.318 26.453 26.453 0 0 1-4.28-5.566 27.203 27.203 0 0 1-2.683-6.506 27.323 27.323 0 0 1-.939-7.166c0-2.465.318-4.86.958-7.186a27.545 27.545 0 0 1 2.74-6.562 26.956 26.956 0 0 1 4.372-5.64 27.328 27.328 0 0 1 5.835-4.393c2.165-1.22 4.535-2.17 7.113-2.848 2.576-.68 5.33-1.02 8.257-1.02 2.777 0 5.336.377 7.675 1.132 2.34.754 4.477 1.754 6.418 3a26.146 26.146 0 0 1 5.16 4.318 32.915 32.915 0 0 1 3.866 5.093l-3.79 2.565c-2.202-4.25-4.654-7.369-7.357-9.354-2.704-1.986-5.805-2.98-9.309-2.98-3.028 0-5.853.554-8.482 1.66a20.09 20.09 0 0 0-6.867 4.753c-1.951 2.062-3.491 4.564-4.616 7.505-1.124 2.942-1.687 6.26-1.687 9.957z"/></g><g><path fill="#b5212e" d="M293.728 110.208V88.293h7.732c1.6 0 3.077.265 4.429.793 1.35.527 2.514 1.263 3.49 2.206.976.942 1.74 2.075 2.29 3.395.551 1.32.824 2.76.824 4.32 0 1.709-.343 3.255-1.031 4.638a10.312 10.312 0 0 1-2.872 3.527c-1.226.967-2.671 1.717-4.336 2.244-1.662.529-3.484.792-5.46.792zm-8.783 27.348h8.783V112.85h6.155l18.166 24.706h10.171l-19.03-25.498c1.902-.453 3.642-1.1 5.218-1.943 1.576-.842 2.928-1.834 4.054-2.978a12.542 12.542 0 0 0 2.607-3.848c.613-1.421.92-2.95.92-4.583 0-1.987-.4-3.818-1.2-5.489-.801-1.672-1.99-3.118-3.565-4.337-1.577-1.221-3.549-2.17-5.911-2.85-2.367-.678-5.125-1.017-8.278-1.017h-18.09z"/></g><g><path fill="#b5212e" d="M352.354 95.839l9.496 20.783h-19.256zm1.239-12.033l-25.184 53.75h4.391l8.257-17.54h22.406l7.995 17.54h8.933l-24.621-53.75z"/></g><g><path fill="#b5212e" d="M387.145 85.013h4.917l34.266 38.398h.338V85.013h3.866V138.8h-2.026l-37.12-42.737h-.3v41.492h-3.941z"/></g><g><path fill="#b5212e" d="M480 85.013v3.394h-27.55v18.785h18.429v3.394H452.45v23.574H480v3.396h-36.333V85.013z"/></g></g><g><path fill="#7a1b27" d="M249.32 36.644c-.496-.004-.941-.03-1.334-.084-.765-.09-1.267-.247-1.267-.247a.529.529 0 0 1-.362-.582s.08-.525.335-1.257c.121-.373.293-.788.51-1.237.213-.45.475-.918.796-1.382.643-.926 1.454-1.9 2.554-2.574 1.12-.644 2.593-.88 3.86-1.439 1.292-.533 2.567-1.089 3.808-1.53 1.23-.473 2.399-.872 3.396-1.219 2.007-.681 3.389-1.066 3.389-1.066a.353.353 0 0 1 .437.252.364.364 0 0 1-.076.335s-.947 1.077-2.44 2.593c-.747.746-1.619 1.629-2.578 2.527-.936.93-1.999 1.835-3.038 2.769-1.058.902-1.919 2.127-2.985 2.851-1.085.7-2.31 1.005-3.419 1.176a9.662 9.662 0 0 1-1.506.115h-.08zm104.31 35.667c-1.763-.978-4.378-2.372-7.653-4.23a1604.785 1604.785 0 0 1-27.062-15.503c-5.573-3.251-11.608-6.774-17.944-10.58-6.342-3.792-13.05-7.76-19.915-11.982-6.872-4.215-14.026-8.482-21.195-12.975a8493.71 8493.71 0 0 1-10.85-6.754l-2.483-1.542c-.918-.438-2.04-1.1-2.635-1.154-.365-.091-.658-.232-1.073-.316l-1.31-.22c-.43-.103-.88-.123-1.332-.13l-1.348-.065c-1.79.107-3.636.248-5.242.872-.869.213-1.542.662-2.292 1.005-.83.473-1.798 1.108-2.693 1.648-3.635 2.262-7.26 4.512-10.854 6.743-7.17 4.497-14.33 8.753-21.206 12.96-6.868 4.215-13.577 8.182-19.927 11.962-6.34 3.804-12.374 7.326-17.951 10.57a1569.313 1569.313 0 0 1-27.077 15.468c-3.275 1.855-5.891 3.245-7.657 4.223-1.77.967-2.714 1.48-2.714 1.48s.875-.623 2.516-1.796c1.649-1.165 4.04-2.916 7.135-5.064a1573.302 1573.302 0 0 1 25.722-17.658c5.348-3.61 11.147-7.516 17.326-11.57 6.168-4.07 12.659-8.388 19.444-12.74 6.78-4.359 13.729-8.958 20.898-13.458 3.575-2.265 7.176-4.55 10.794-6.841.928-.58 1.75-1.135 2.775-1.737 1.165-.61 2.338-1.29 3.556-1.63C233.8.38 236.29.126 238.773 0l1.87.094c.62.028 1.24.07 1.86.206l1.863.34c.632.136 1.34.403 2.002.62 1.508.464 2.216.971 3.225 1.458l.091.045.343.195.167.11.343.218.678.43 1.355.86c3.617 2.296 7.215 4.584 10.79 6.853 7.157 4.515 14.106 9.115 20.883 13.478 6.78 4.36 13.264 8.687 19.432 12.762 6.175 4.058 11.97 7.972 17.315 11.584a1619.67 1619.67 0 0 1 25.707 17.678c3.095 2.148 5.486 3.903 7.13 5.068l2.517 1.796-2.714-1.484zM62.783 69.462a568.542 568.542 0 0 1 15.096-10.987c3.148-2.235 6.563-4.644 10.225-7.116 3.648-2.49 7.486-5.136 11.506-7.785a963.43 963.43 0 0 1 12.427-8.137c4.245-2.752 8.593-5.49 12.933-8.234 4.364-2.711 8.72-5.434 13.043-8.057a1001.73 1001.73 0 0 1 12.729-7.648c4.138-2.467 8.19-4.767 12.016-6.972.498-.277.909-.544 1.472-.826.572-.27 1.147-.54 1.714-.815.556-.297 1.146-.419 1.717-.605.575-.16 1.142-.354 1.713-.453 2.285-.388 4.493-.552 6.59-.301.518.058 1.036.11 1.547.164.501.114 1 .229 1.496.339.495.13.963.179 1.458.38.487.187.966.378 1.443.56 1.013.347 1.625.834 2.372 1.253l.639.38.495.362c.328.237.647.472.968.705 2.543 1.83 4.724 3.495 6.529 4.846 3.601 2.715 5.62 4.337 5.62 4.337s-2.331-1.116-6.34-3.187c-1.999-1.04-4.44-2.285-7.192-3.785-.346-.182-.696-.373-1.055-.563l-.486-.263c.04.028.083.054.022.02l-.034-.016-.072-.03-.142-.06-.285-.119c-.754-.297-1.596-.758-2.3-.83-.726-.164-1.431-.377-2.302-.43-.412-.05-.83-.1-1.253-.149l-1.302.012c-1.752-.03-3.557.327-5.32.814-.44.122-.844.34-1.275.487-.419.176-.879.293-1.245.55-.388.22-.776.445-1.169.67-.395.228-.887.593-1.332.886-3.651 2.49-7.485 5.136-11.51 7.79a920.547 920.547 0 0 1-12.423 8.136c-4.245 2.753-8.589 5.494-12.928 8.239-4.36 2.714-8.715 5.44-13.04 8.063a964.286 964.286 0 0 1-12.728 7.649c-4.135 2.464-8.185 4.77-12.016 6.972-3.815 2.22-7.47 4.248-10.847 6.11a564.406 564.406 0 0 1-16.45 8.806c-4.01 2.063-6.344 3.175-6.344 3.175s2.018-1.622 5.62-4.337zM312.18 8.002l-.015-.007c.064.037.039.023.015.008zm102.971 62.626c-3.99-2.06-9.667-5.04-16.375-8.784-3.362-1.857-7.002-3.876-10.802-6.091-3.81-2.2-7.842-4.493-11.962-6.952a969.263 969.263 0 0 1-12.67-7.626c-4.306-2.62-8.642-5.33-12.983-8.037-4.321-2.74-8.65-5.468-12.872-8.217a933.532 933.532 0 0 1-12.37-8.113c-4.001-2.645-7.82-5.284-11.452-7.766-.453-.312-.903-.62-1.352-.925l-.167-.118-.084-.057-.025-.019-.226-.127-.705-.391c-.997-.64-1.694-.742-2.455-1.085-.788-.274-1.728-.457-2.585-.651-.888-.065-1.77-.26-2.639-.233-1.74-.026-3.438.138-4.964.541l-1.146.285c-.374.104-.697.283-1.048.42-.345.14-.688.285-1.023.426-.355.187-.705.37-1.047.552-2.745 1.488-5.179 2.725-7.173 3.758-3.994 2.051-6.316 3.16-6.316 3.16s2.006-1.615 5.6-4.318c1.797-1.347 3.967-3 6.506-4.828.317-.228.64-.464.968-.704.377-.224.765-.457 1.153-.692.396-.222.788-.495 1.211-.682.43-.18.868-.358 1.31-.537.875-.419 1.83-.61 2.802-.849.97-.294 1.987-.328 3.03-.472.693-.091 1.401-.084 2.12-.073.362.004.728.008 1.098.004 1.103.119 2.192.203 3.388.47 1.196.318 2.562.707 3.411 1.167l.73.339.37.168.541.309 1.42.814c3.815 2.193 7.843 4.492 11.963 6.952 4.127 2.452 8.38 4.991 12.666 7.63 4.306 2.615 8.639 5.334 12.983 8.041 4.322 2.741 8.646 5.47 12.868 8.216a983.48 983.48 0 0 1 12.367 8.117c4 2.646 7.82 5.288 11.452 7.77 3.647 2.463 7.043 4.874 10.18 7.097a572.793 572.793 0 0 1 15.02 10.957c3.59 2.711 5.6 4.325 5.6 4.325s-2.323-1.112-6.316-3.171zM186.1 73.738a.403.403 0 0 1 .058-.232s.445-.746 1.328-1.88c.442-.576.998-1.23 1.656-1.957a36.682 36.682 0 0 1 2.285-2.315c1.728-1.607 3.811-3.378 6.27-4.904 2.479-1.496 5.402-2.646 8.125-4.12 2.745-1.439 5.467-2.909 8.071-4.202 2.585-1.33 5.03-2.513 7.123-3.534 4.173-2.067 7.006-3.362 7.006-3.362.175-.08.377 0 .457.176a.344.344 0 0 1-.092.41s-2.402 1.988-6.08 4.852c-1.83 1.442-3.963 3.128-6.286 4.88-2.299 1.782-4.812 3.598-7.301 5.44-2.513 1.812-4.82 3.95-7.25 5.528-2.444 1.554-4.942 2.654-7.138 3.515-1.1.427-2.132.772-3.072 1.043-.937.274-1.771.491-2.475.636-1.401.304-2.266.376-2.266.376a.388.388 0 0 1-.419-.35zm106.01.35s-5.137-2.745-12.763-6.986c-3.818-2.11-8.28-4.56-13.02-7.249-4.763-2.653-9.79-5.573-14.833-8.467-5.025-2.92-10.25-5.52-14.887-8.38a121.01 121.01 0 0 1-6.517-4.385c-2.045-1.444-3.922-2.894-5.647-4.242-1.736-1.336-3.274-2.638-4.644-3.792a108.536 108.536 0 0 1-3.473-3.1c-1.892-1.766-2.912-2.873-2.912-2.873a.36.36 0 0 1 .022-.507.345.345 0 0 1 .343-.076s1.44.434 3.85 1.37c1.206.465 2.65 1.066 4.29 1.782 1.63.736 3.468 1.558 5.425 2.54 1.961.97 4.078 2.032 6.263 3.247 2.2 1.192 4.47 2.525 6.778 3.975 4.584 2.935 9.194 6.525 14.006 9.785 4.793 3.293 9.606 6.56 14.064 9.7 4.477 3.112 8.623 6.07 12.183 8.597a951.785 951.785 0 0 1 11.833 8.48.345.345 0 0 1-.204.621.323.323 0 0 1-.158-.04z"/></g></g></g></svg>