<svg xmlns="http://www.w3.org/2000/svg" width="36" height="41" viewBox="0 0 36 41"><g><g><g><path fill="#e2e5e7" d="M7.714 0a2.575 2.575 0 0 0-2.571 2.563v35.874A2.575 2.575 0 0 0 7.714 41H33.43A2.575 2.575 0 0 0 36 38.437V10.25L25.714 0z"/></g><g><path fill="#b0b7bd" d="M28.286 10.25H36L25.714 0v7.688a2.575 2.575 0 0 0 2.572 2.562z"/></g><g><path fill="#cad1d8" d="M36 17.938l-7.714-7.688H36z"/></g><g><path fill="#50bee8" d="M30.857 33.313c0 .704-.578 1.28-1.286 1.28H1.286A1.287 1.287 0 0 1 0 33.314V20.5c0-.705.579-1.281 1.286-1.281H29.57c.708 0 1.286.576 1.286 1.281z"/></g><g><g><path fill="#fff" d="M7.222 24.91c2.898 0 2.776 4.59 0 4.59H5.516v-4.59zm.091 5.84c4.503 0 4.607-7.09-.091-7.09H4.868c-.34 0-.71.267-.71.636v5.818c0 .45.37.636.71.636z"/></g><g><path fill="#fff" d="M18.084 27.165c0 1.61-1.264 2.43-2.447 2.43-1.15 0-2.406-.82-2.406-2.43 0-1.618 1.254-2.428 2.406-2.428 1.183 0 2.447.809 2.447 2.428zm1.346-.001c0-2.428-1.881-3.668-3.68-3.76-1.903 0-3.876 1.24-3.876 3.76 0 2.51 1.974 3.77 3.876 3.688 1.799 0 3.68-1.259 3.68-3.688z"/></g><g><path fill="#fff" d="M20.64 27.154c0-1.977 1.244-3.678 3.609-3.678.894 0 1.604.267 2.354.913a.696.696 0 0 1 .03.993.7.7 0 0 1-.946-.031c-.42-.441-.852-.563-1.438-.563-1.583 0-2.343 1.118-2.343 2.367 0 1.27.75 2.438 2.343 2.438.586 0 1.131-.237 1.604-.656.318-.246.76-.124.945.123.165.226.246.605-.113.962-.72.668-1.583.801-2.438.801-2.486 0-3.607-1.692-3.607-3.67z"/></g></g><g><path fill="#cad1d8" d="M29.571 34.594H5.143v1.281H29.57c.708 0 1.286-.577 1.286-1.281v-1.282c0 .705-.578 1.282-1.286 1.282z"/></g></g></g></svg>