<svg xmlns="http://www.w3.org/2000/svg" width="36" height="41" viewBox="0 0 36 41"><g><g><g><path fill="#e2e5e7" d="M7.714 0a2.575 2.575 0 0 0-2.571 2.563v35.874A2.575 2.575 0 0 0 7.714 41H33.43A2.575 2.575 0 0 0 36 38.437V10.25L25.714 0z"/></g><g><path fill="#b0b7bd" d="M28.286 10.25H36L25.714 0v7.688a2.575 2.575 0 0 0 2.572 2.562z"/></g><g><path fill="#cad1d8" d="M36 17.938l-7.714-7.688H36z"/></g><g><path fill="#f15642" d="M30.857 33.313c0 .704-.578 1.28-1.286 1.28H1.286A1.287 1.287 0 0 1 0 33.314V20.5c0-.705.579-1.281 1.286-1.281H29.57c.708 0 1.286.576 1.286 1.281z"/></g><g><g><path fill="#fff" d="M8.677 24.859c.69 0 1.235.594 1.235 1.31 0 .636-.546 1.242-1.235 1.242H6.961v-2.552zm-3.073 5.185c0 .451.36.706.699.706.37 0 .658-.255.658-.706v-1.353h1.716c1.337 0 2.54-.902 2.54-2.521 0-1.71-1.203-2.601-2.54-2.601H6.303c-.431 0-.699.369-.699.707z"/></g><g><path fill="#fff" d="M15.585 24.911c2.9 0 2.776 4.59 0 4.59H13.88v-4.59zm.093 5.839c4.503 0 4.605-7.09-.093-7.09h-2.354c-.34 0-.71.269-.71.636v5.82c0 .45.37.634.71.634z"/></g><g><path fill="#fff" d="M21.847 24.993v1.629h2.621c.37 0 .741.369.741.726 0 .339-.37.615-.74.615h-2.622v2.151c0 .36-.256.635-.616.635-.453 0-.729-.276-.729-.635v-5.819c0-.368.278-.635.729-.635h3.609c.453 0 .72.267.72.635a.71.71 0 0 1-.72.697h-2.993z"/></g></g><g><path fill="#cad1d8" d="M29.571 34.594H5.143v1.281H29.57c.708 0 1.286-.577 1.286-1.281v-1.282c0 .705-.578 1.282-1.286 1.282z"/></g></g></g></svg>