<svg xmlns="http://www.w3.org/2000/svg" width="132" height="42" viewBox="0 0 132 42"><g><g><g><g><g><path fill="#fff" d="M0 23.186h2.415v9.3a4.7 4.7 0 0 0 .315 1.723c.21.538.51 1.01.903 1.414.392.404.863.723 1.414.956.55.234 1.166.35 1.848.35.688 0 1.307-.116 1.857-.35a4.143 4.143 0 0 0 1.404-.956c.385-.405.681-.877.888-1.414.206-.539.31-1.113.31-1.724v-9.3h1.063v9.3c0 .734-.12 1.425-.357 2.073a4.493 4.493 0 0 1-1.12 1.708c-.508.49-1.16.877-1.955 1.162-.795.285-1.75.428-2.865.428-.99 0-1.868-.143-2.631-.428-.764-.285-1.404-.673-1.92-1.168a4.88 4.88 0 0 1-1.171-1.727A5.563 5.563 0 0 1 0 32.434v-9.248z"/></g><g><path fill="#fff" d="M15.77 23.186h1.353l9.423 10.472h.093V23.186h1.063v14.67h-.557L16.937 26.2h-.082v11.316H15.77v-14.33z"/></g><g><path fill="#fff" d="M31.315 23.186h2.415v14.33h-2.415z"/></g><g><path fill="#fff" d="M44.557 37.135c-.84 0-1.578-.172-2.214-.514a4.567 4.567 0 0 1-1.594-1.43c-.427-.61-.749-1.336-.965-2.176a11.008 11.008 0 0 1-.325-2.751c0-.981.108-1.881.325-2.7.216-.82.538-1.527.965-2.12a4.478 4.478 0 0 1 1.594-1.384c.637-.329 1.375-.493 2.215-.493.818 0 1.544.164 2.177.493.633.33 1.165.79 1.595 1.384.43.593.757 1.3.98 2.12.224.819.336 1.719.336 2.7 0 .994-.112 1.894-.336 2.7-.223.805-.552 1.502-.985 2.088a5.055 5.055 0 0 1-1.6 1.414c-.634.357-1.356.58-2.168.669zM52.298 42zm0 0v-.381a5.633 5.633 0 0 1-1.992-.355 7.237 7.237 0 0 1-1.73-.92 6.602 6.602 0 0 1-1.336-1.282c-.371-.477-.636-.951-.794-1.424a6.56 6.56 0 0 0 1.64-.561 7.475 7.475 0 0 0 1.436-.93 8.021 8.021 0 0 0 2.095-2.655 7.883 7.883 0 0 0 .573-1.579 6.888 6.888 0 0 0 .201-1.651 7.172 7.172 0 0 0-2.245-5.236 7.43 7.43 0 0 0-1.579-1.157 8.29 8.29 0 0 0-4.01-1.013 8.329 8.329 0 0 0-4.02 1.013 7.283 7.283 0 0 0-1.574 1.157 7.518 7.518 0 0 0-1.203 1.502 7.14 7.14 0 0 0-.624 6.09 8.222 8.222 0 0 0 1.15 2.17 7.961 7.961 0 0 0 1.76 1.734c.682.49 1.432.835 2.25 1.033.262.316.594.645.997.988.402.343.857.679 1.362 1.008.506.33 1.056.642 1.652.936.595.295 1.218.556 1.868.782.65.226 1.325.405 2.023.535.698.13 1.398.196 2.1.196z"/></g><g><path fill="#fff" d="M63.786 30.397c0 1.008.151 1.91.454 2.706.303.795.719 1.47 1.249 2.02.53.553 1.157.975 1.884 1.266a6.27 6.27 0 0 0 2.358.438c.502 0 .987-.099 1.455-.294a5.7 5.7 0 0 0 1.306-.761 6.406 6.406 0 0 0 1.078-1.06c.317-.394.579-.793.785-1.198l1.011.648c-.296.48-.645.943-1.047 1.389a6.84 6.84 0 0 1-1.4 1.177c-.529.34-1.127.613-1.795.819-.667.206-1.414.309-2.24.309a8.912 8.912 0 0 1-2.24-.273 8.234 8.234 0 0 1-1.934-.762 7.223 7.223 0 0 1-2.756-2.696 7.395 7.395 0 0 1-.996-3.729c0-.671.087-1.324.263-1.959a7.36 7.36 0 0 1 1.956-3.328 7.51 7.51 0 0 1 1.604-1.198 8.272 8.272 0 0 1 1.956-.777 8.94 8.94 0 0 1 2.271-.277c.764 0 1.467.102 2.11.308a7.547 7.547 0 0 1 1.766.818c.533.34 1.006.732 1.419 1.178.413.445.767.909 1.063 1.389l-1.043.7c-.605-1.16-1.28-2.01-2.023-2.552-.743-.541-1.596-.812-2.56-.812-.832 0-1.61.15-2.332.452a5.526 5.526 0 0 0-1.889 1.297c-.536.562-.96 1.244-1.269 2.047-.31.802-.464 1.707-.464 2.715z"/></g><g><path fill="#fff" d="M80.775 30.057V24.08h2.127c.44 0 .846.073 1.217.216.372.144.692.345.96.602.269.257.479.566.63.926.152.36.227.753.227 1.178 0 .466-.095.888-.284 1.265-.19.377-.453.698-.79.962a3.729 3.729 0 0 1-1.192.612 4.975 4.975 0 0 1-1.502.216zm-2.415 7.459h2.415v-6.738h1.693l4.996 6.738h2.797l-5.233-6.954a5.985 5.985 0 0 0 1.434-.53c.434-.23.805-.5 1.115-.812.31-.313.549-.662.717-1.05.169-.387.253-.804.253-1.25 0-.542-.11-1.04-.33-1.497a3.283 3.283 0 0 0-.98-1.183c-.434-.333-.976-.591-1.626-.777-.65-.185-1.41-.277-2.276-.277H78.36z"/></g><g><path fill="#fff" d="M96.897 26.138l2.612 5.669h-5.296zm.341-3.281l-6.926 14.659h1.208l2.27-4.784h6.163l2.198 4.784h2.457l-6.771-14.66z"/></g><g><path fill="#fff" d="M106.465 23.186h1.352l9.423 10.472h.093V23.186h1.063v14.67h-.557L107.631 26.2h-.082v11.316h-1.084z"/></g><g><path fill="#fff" d="M132 23.186v.925h-7.576v5.124h5.068v.925h-5.068v6.43H132v.926h-9.991v-14.33z"/></g></g><g><g><path fill="#fff" d="M54.596 4.05s-.641-.304-1.743-.868c-.55-.284-1.22-.623-1.978-1.032l-.29-.154-.148-.079c-.01-.005.05.03.02.013l-.01-.005-.02-.008-.038-.016-.079-.033c-.207-.081-.438-.206-.632-.227-.2-.043-.394-.102-.633-.117l-.345-.04-.358.003c-.48-.008-.978.09-1.462.222-.122.033-.233.093-.351.134-.115.047-.242.079-.343.15l-.32.181c-.11.063-.245.162-.368.242-1.003.679-2.058 1.401-3.164 2.125a265.635 265.635 0 0 1-3.417 2.22c-1.167.75-2.362 1.497-3.555 2.246-1.2.74-2.397 1.483-3.586 2.199-1.185.721-2.36 1.416-3.5 2.086-1.138.672-2.251 1.301-3.305 1.901-1.05.606-2.054 1.159-2.983 1.667a155.647 155.647 0 0 1-4.524 2.401c-1.103.563-1.745.866-1.745.866s.555-.442 1.547-1.182c.99-.74 2.414-1.787 4.15-2.997.866-.609 1.806-1.266 2.813-1.94 1.003-.68 2.058-1.4 3.164-2.124a258.99 258.99 0 0 1 3.418-2.219c1.166-.75 2.362-1.497 3.556-2.246 1.2-.74 2.398-1.482 3.586-2.197a268.51 268.51 0 0 1 3.501-2.086c1.138-.672 2.252-1.3 3.305-1.901.137-.076.25-.148.404-.225l.471-.222c.154-.082.316-.115.473-.165.158-.045.314-.098.471-.125.629-.105 1.236-.15 1.812-.081l.426.044.41.092c.137.036.265.05.402.104l.397.153c.278.095.446.228.652.341l.176.104.136.099.265.192c.7.5 1.3.953 1.797 1.322.99.74 1.545 1.182 1.545 1.182z"/></g></g><g><g><path fill="#fff" d="M80.33 20.206s-1.412-.748-3.51-1.905c-1.05-.575-2.276-1.244-3.58-1.977-1.31-.724-2.692-1.52-4.08-2.31-1.381-.796-2.818-1.505-4.093-2.285a40.074 40.074 0 0 1-3.345-2.353c-.477-.364-.901-.72-1.277-1.034a29.124 29.124 0 0 1-.955-.844c-.52-.483-.801-.785-.801-.785a.097.097 0 0 1 .006-.137.099.099 0 0 1 .094-.022s.396.119 1.058.374c.333.127.73.29 1.18.486.448.2.954.425 1.492.692.54.265 1.122.555 1.723.886.605.325 1.229.689 1.863 1.084 1.261.801 2.53 1.78 3.853 2.669 1.318.898 2.64 1.788 3.867 2.646 1.232.848 2.372 1.655 3.35 2.344a266.158 266.158 0 0 1 3.254 2.312c.042.03.052.09.02.131a.094.094 0 0 1-.12.028z"/></g></g><g><g><path fill="#fff" d="M62.806 13.041s-.66.543-1.672 1.324c-.503.393-1.09.853-1.728 1.33-.633.487-1.323.982-2.008 1.485-.691.494-1.326 1.077-1.994 1.507-.672.424-1.36.724-1.963.958-.302.117-.587.211-.845.285a8.927 8.927 0 0 1-.68.174 5.516 5.516 0 0 1-.624.102.106.106 0 0 1-.114-.096.106.106 0 0 1 .014-.063s.123-.203.366-.513c.121-.156.275-.335.456-.533.18-.199.39-.412.628-.632.475-.437 1.048-.92 1.725-1.337.681-.408 1.485-.722 2.234-1.123.754-.393 1.503-.794 2.22-1.147.71-.362 1.383-.685 1.959-.964a76.112 76.112 0 0 1 1.926-.916.095.095 0 0 1 .1.16z"/></g></g><g><g><path fill="#fff" d="M72.976 6.713s-.261.294-.67.707c-.207.204-.446.444-.71.69-.258.253-.55.5-.836.754-.291.246-.527.58-.82.778-.299.191-.637.274-.94.322-.154.023-.3.032-.438.03-.136 0-.258-.008-.365-.022-.211-.025-.35-.068-.35-.068a.144.144 0 0 1-.099-.16s.022-.142.092-.342a2.77 2.77 0 0 1 .14-.337c.059-.123.132-.25.22-.377.176-.252.4-.518.702-.701.307-.176.712-.241 1.062-.394.355-.145.705-.297 1.047-.417.337-.128.659-.237.934-.332.551-.186.931-.29.931-.29a.097.097 0 0 1 .12.068c.01.033.001.067-.02.091z"/></g></g><g><g><path fill="#fff" d="M115.903 20.127s-.638-.303-1.736-.864a157.226 157.226 0 0 1-4.504-2.396 149.751 149.751 0 0 1-2.97-1.662c-1.048-.6-2.157-1.225-3.29-1.896a264.39 264.39 0 0 1-3.484-2.08c-1.183-.713-2.376-1.453-3.57-2.192-1.188-.747-2.378-1.49-3.54-2.24a261.497 261.497 0 0 1-3.401-2.212c-1.1-.722-2.151-1.441-3.15-2.12l-.371-.252-.047-.031-.023-.016-.011-.008.04.023-.098-.054-.193-.107c-.275-.174-.466-.202-.675-.296-.218-.075-.477-.125-.711-.178-.245-.017-.487-.07-.727-.063a5.152 5.152 0 0 0-1.364.147l-.315.078c-.103.028-.193.077-.289.114l-.281.116-.288.151c-.755.406-1.424.744-1.972 1.025-1.099.56-1.738.862-1.738.862s.553-.44 1.54-1.178c.494-.367 1.092-.818 1.79-1.316l.266-.192.317-.189c.109-.06.216-.135.333-.186l.36-.147c.241-.113.503-.165.77-.232.267-.079.547-.088.834-.128.286-.037.581-.012.884-.018.305.031.604.055.933.128.328.086.704.192.938.318l.2.092.102.046.149.084.39.223c1.05.598 2.157 1.225 3.29 1.896 1.134.668 2.305 1.36 3.484 2.08 1.184.714 2.375 1.455 3.57 2.193 1.188.747 2.377 1.493 3.538 2.241 1.164.744 2.303 1.488 3.401 2.214 1.101.722 2.15 1.442 3.15 2.119 1.002.672 1.936 1.329 2.799 1.935a156.04 156.04 0 0 1 4.131 2.989c.987.739 1.54 1.179 1.54 1.179z"/></g></g><g><g><path fill="#fff" d="M97.995 20.127l-.747-.406c-.485-.267-1.204-.647-2.104-1.153A441.301 441.301 0 0 1 87.7 14.34c-1.532-.887-3.192-1.847-4.933-2.886-1.745-1.034-3.59-2.116-5.478-3.267-1.889-1.15-3.856-2.314-5.829-3.54l-2.984-1.84-.682-.42c-.252-.121-.561-.302-.724-.317-.1-.024-.181-.063-.296-.085l-.36-.06a1.722 1.722 0 0 0-.366-.036l-.37-.018c-.492.03-1 .068-1.442.239-.239.057-.424.18-.63.274-.23.128-.495.301-.74.45L59.88 4.671C57.91 5.898 55.94 7.059 54.05 8.207c-1.89 1.149-3.735 2.231-5.48 3.262a408.446 408.446 0 0 1-4.937 2.882 432.04 432.04 0 0 1-7.446 4.22c-.901.505-1.62.884-2.106 1.15l-.747.405.693-.49c.453-.319 1.11-.796 1.962-1.382a434.328 434.328 0 0 1 7.073-4.815c1.471-.985 3.065-2.05 4.765-3.155 1.696-1.111 3.482-2.288 5.347-3.476 1.865-1.188 3.776-2.442 5.747-3.67l2.968-1.866c.256-.158.481-.309.763-.473.32-.166.643-.352.979-.445.664-.25 1.349-.32 2.032-.353l.513.026c.172.007.342.018.513.055l.512.093c.174.037.368.11.55.169.415.127.61.265.887.398l.025.012.094.054.047.03.094.058.186.118.373.234 2.967 1.87c1.968 1.231 3.88 2.485 5.742 3.675 1.865 1.19 3.648 2.37 5.344 3.481a422.802 422.802 0 0 1 4.762 3.16 438.444 438.444 0 0 1 7.07 4.82c.85.586 1.508 1.064 1.961 1.382.45.32.692.49.692.49z"/></g></g><g><g><path fill="#fff" d="M0 23.186h2.415v9.3a4.7 4.7 0 0 0 .315 1.723c.21.538.51 1.01.903 1.414.392.404.863.723 1.414.956.55.234 1.166.35 1.848.35.688 0 1.307-.116 1.857-.35a4.143 4.143 0 0 0 1.404-.956c.385-.405.681-.877.888-1.414.206-.539.31-1.113.31-1.724v-9.3h1.063v9.3c0 .734-.12 1.425-.357 2.073a4.493 4.493 0 0 1-1.12 1.708c-.508.49-1.16.877-1.955 1.162-.795.285-1.75.428-2.865.428-.99 0-1.868-.143-2.631-.428-.764-.285-1.404-.673-1.92-1.168a4.88 4.88 0 0 1-1.171-1.727A5.563 5.563 0 0 1 0 32.434v-9.248z"/></g><g><path fill="#fff" d="M15.77 23.186h1.353l9.423 10.472h.093V23.186h1.063v14.67h-.557L16.937 26.2h-.082v11.316H15.77v-14.33z"/></g><g><path fill="#fff" d="M31.315 23.186h2.415v14.33h-2.415z"/></g><g><path fill="#fff" d="M44.557 37.135c-.84 0-1.578-.172-2.214-.514a4.567 4.567 0 0 1-1.594-1.43c-.427-.61-.749-1.336-.965-2.176a11.008 11.008 0 0 1-.325-2.751c0-.981.108-1.881.325-2.7.216-.82.538-1.527.965-2.12a4.478 4.478 0 0 1 1.594-1.384c.637-.329 1.375-.493 2.215-.493.818 0 1.544.164 2.177.493.633.33 1.165.79 1.595 1.384.43.593.757 1.3.98 2.12.224.819.336 1.719.336 2.7 0 .994-.112 1.894-.336 2.7-.223.805-.552 1.502-.985 2.088a5.055 5.055 0 0 1-1.6 1.414c-.634.357-1.356.58-2.168.669zM52.298 42zm0 0v-.381a5.633 5.633 0 0 1-1.992-.355 7.237 7.237 0 0 1-1.73-.92 6.602 6.602 0 0 1-1.336-1.282c-.371-.477-.636-.951-.794-1.424a6.56 6.56 0 0 0 1.64-.561 7.475 7.475 0 0 0 1.436-.93 8.021 8.021 0 0 0 2.095-2.655 7.883 7.883 0 0 0 .573-1.579 6.888 6.888 0 0 0 .201-1.651 7.172 7.172 0 0 0-2.245-5.236 7.43 7.43 0 0 0-1.579-1.157 8.29 8.29 0 0 0-4.01-1.013 8.329 8.329 0 0 0-4.02 1.013 7.283 7.283 0 0 0-1.574 1.157 7.518 7.518 0 0 0-1.203 1.502 7.14 7.14 0 0 0-.624 6.09 8.222 8.222 0 0 0 1.15 2.17 7.961 7.961 0 0 0 1.76 1.734c.682.49 1.432.835 2.25 1.033.262.316.594.645.997.988.402.343.857.679 1.362 1.008.506.33 1.056.642 1.652.936.595.295 1.218.556 1.868.782.65.226 1.325.405 2.023.535.698.13 1.398.196 2.1.196z"/></g><g><path fill="#fff" d="M63.786 30.397c0 1.008.151 1.91.454 2.706.303.795.719 1.47 1.249 2.02.53.553 1.157.975 1.884 1.266a6.27 6.27 0 0 0 2.358.438c.502 0 .987-.099 1.455-.294a5.7 5.7 0 0 0 1.306-.761 6.406 6.406 0 0 0 1.078-1.06c.317-.394.579-.793.785-1.198l1.011.648c-.296.48-.645.943-1.047 1.389a6.84 6.84 0 0 1-1.4 1.177c-.529.34-1.127.613-1.795.819-.667.206-1.414.309-2.24.309a8.912 8.912 0 0 1-2.24-.273 8.234 8.234 0 0 1-1.934-.762 7.223 7.223 0 0 1-2.756-2.696 7.395 7.395 0 0 1-.996-3.729c0-.671.087-1.324.263-1.959a7.36 7.36 0 0 1 1.956-3.328 7.51 7.51 0 0 1 1.604-1.198 8.272 8.272 0 0 1 1.956-.777 8.94 8.94 0 0 1 2.271-.277c.764 0 1.467.102 2.11.308a7.547 7.547 0 0 1 1.766.818c.533.34 1.006.732 1.419 1.178.413.445.767.909 1.063 1.389l-1.043.7c-.605-1.16-1.28-2.01-2.023-2.552-.743-.541-1.596-.812-2.56-.812-.832 0-1.61.15-2.332.452a5.526 5.526 0 0 0-1.889 1.297c-.536.562-.96 1.244-1.269 2.047-.31.802-.464 1.707-.464 2.715z"/></g><g><path fill="#fff" d="M80.775 30.057V24.08h2.127c.44 0 .846.073 1.217.216.372.144.692.345.96.602.269.257.479.566.63.926.152.36.227.753.227 1.178 0 .466-.095.888-.284 1.265-.19.377-.453.698-.79.962a3.729 3.729 0 0 1-1.192.612 4.975 4.975 0 0 1-1.502.216zm-2.415 7.459h2.415v-6.738h1.693l4.996 6.738h2.797l-5.233-6.954a5.985 5.985 0 0 0 1.434-.53c.434-.23.805-.5 1.115-.812.31-.313.549-.662.717-1.05.169-.387.253-.804.253-1.25 0-.542-.11-1.04-.33-1.497a3.283 3.283 0 0 0-.98-1.183c-.434-.333-.976-.591-1.626-.777-.65-.185-1.41-.277-2.276-.277H78.36z"/></g><g><path fill="#fff" d="M96.897 26.138l2.612 5.669h-5.296zm.341-3.281l-6.926 14.659h1.208l2.27-4.784h6.163l2.198 4.784h2.457l-6.771-14.66z"/></g><g><path fill="#fff" d="M106.465 23.186h1.352l9.423 10.472h.093V23.186h1.063v14.67h-.557L107.631 26.2h-.082v11.316h-1.084z"/></g><g><path fill="#fff" d="M132 23.186v.925h-7.576v5.124h5.068v.925h-5.068v6.43H132v.926h-9.991v-14.33z"/></g></g><g><path fill="#fff" d="M54.596 4.05l-.45-.234c-.294-.155-.73-.373-1.272-.668-.544-.293-1.207-.645-1.958-1.064-.382-.215-.759-.424-1.178-.534a5.022 5.022 0 0 0-1.39-.19 5.486 5.486 0 0 0-1.5.214 4.55 4.55 0 0 0-.724.28 3.158 3.158 0 0 0-.336.19c-.11.067-.246.161-.368.242-1.01.67-2.07 1.383-3.183 2.096-1.112.714-2.25 1.47-3.426 2.206l-3.557 2.244-3.585 2.201c-1.178.733-2.36 1.418-3.492 2.1-1.131.683-2.24 1.321-3.287 1.93a183.117 183.117 0 0 1-2.965 1.696 197.215 197.215 0 0 1-4.484 2.467c-.543.295-.978.513-1.271.667l-.452.233.41-.301c.267-.195.654-.49 1.158-.846a196.936 196.936 0 0 1 4.192-2.932c.873-.598 1.82-1.244 2.831-1.91 1.01-.672 2.07-1.384 3.183-2.097 1.112-.714 2.248-1.472 3.426-2.205l3.558-2.244 3.585-2.2c1.18-.731 2.36-1.418 3.492-2.1 1.132-.683 2.24-1.32 3.287-1.929.136-.077.252-.149.4-.23a4.757 4.757 0 0 1 1.371-.504 6.368 6.368 0 0 1 1.774-.104 5.458 5.458 0 0 1 1.584.361c.5.193.9.484 1.242.726.707.49 1.315.93 1.817 1.29.503.358.89.652 1.158.847l.41.302z"/></g><g><path fill="#fff" d="M80.34 20.19s-1.399-.77-3.48-1.95c-1.043-.588-2.26-1.272-3.557-2.018-1.3-.738-2.676-1.545-4.056-2.346l-2.071-1.173a53.484 53.484 0 0 1-1.996-1.155c-.633-.396-1.24-.789-1.8-1.186l-.818-.571-.754-.554c-.483-.354-.916-.695-1.3-.996a35.738 35.738 0 0 1-.98-.806c-.536-.457-.829-.74-.829-.74a.075.075 0 0 1 .078-.124s.384.138 1.03.42c.325.138.714.316 1.156.524.44.212.937.451 1.468.73l.829.433.874.484c.603.328 1.222.7 1.857 1.094.63.4 1.27.834 1.914 1.284l1.965 1.343c1.325.887 2.655 1.766 3.89 2.61 1.24.835 2.39 1.627 3.376 2.304a340.644 340.644 0 0 1 3.281 2.267c.034.023.041.07.018.102a.071.071 0 0 1-.094.023z"/></g><g><path fill="#fff" d="M62.795 13.024s-.673.522-1.7 1.279c-.511.38-1.107.826-1.753 1.291-.642.472-1.339.956-2.032 1.447-.697.484-1.35 1.038-2.02 1.466a14.55 14.55 0 0 1-1.936 1c-.296.126-.574.232-.822.322-.249.089-.47.16-.655.213a6.55 6.55 0 0 1-.595.148.079.079 0 0 1-.078-.125s.135-.183.394-.468c.13-.143.29-.309.48-.493.19-.182.407-.384.652-.594a14.45 14.45 0 0 1 1.751-1.295c.68-.412 1.465-.754 2.208-1.166.746-.405 1.489-.816 2.196-1.183.703-.375 1.366-.713 1.934-1.004 1.133-.587 1.899-.96 1.899-.96a.073.073 0 0 1 .098.033.072.072 0 0 1-.02.09z"/></g><g><path fill="#fff" d="M72.965 6.695s-.274.273-.7.662c-.213.192-.461.418-.733.65-.268.24-.565.476-.859.718-.298.236-.552.54-.847.736a2.98 2.98 0 0 1-.914.363 3.05 3.05 0 0 1-.413.069 2.945 2.945 0 0 1-.341.017c-.196 0-.321-.024-.321-.024a.099.099 0 0 1-.08-.115l.002-.009s.035-.122.12-.297c.041-.089.097-.189.165-.298.067-.11.148-.224.243-.34.19-.228.425-.475.728-.659.306-.178.692-.272 1.035-.436.348-.156.691-.32 1.025-.454.328-.141.641-.264.909-.371.536-.21.902-.336.902-.336a.076.076 0 0 1 .08.124z"/></g><g><path fill="#fff" d="M115.903 20.127l-.448-.233c-.292-.155-.726-.372-1.266-.666-1.086-.58-2.63-1.42-4.463-2.46-.918-.519-1.912-1.08-2.952-1.692-1.043-.608-2.146-1.243-3.272-1.924-1.127-.68-2.303-1.365-3.477-2.094l-3.568-2.195-3.542-2.237c-1.172-.732-2.304-1.488-3.41-2.2-1.107-.711-2.164-1.421-3.168-2.09-.125-.085-.25-.168-.374-.25l-.046-.031-.024-.016c.006.003-.029-.018.01.005l-.012-.007-.095-.057c-.062-.036-.13-.08-.185-.109a4.367 4.367 0 0 0-.687-.281 5.023 5.023 0 0 0-1.487-.229 5.427 5.427 0 0 0-1.394.167c-.216.054-.42.126-.615.206-.096.042-.186.09-.278.133l-.286.157c-.749.416-1.41.765-1.952 1.056-.54.293-.975.51-1.267.663l-.449.233.407-.3c.267-.194.653-.487 1.154-.843.5-.358 1.106-.796 1.81-1.284l.268-.188c.101-.062.203-.13.309-.192a5.15 5.15 0 0 1 .685-.315 5.846 5.846 0 0 1 1.578-.333 5.936 5.936 0 0 1 1.77.123c.308.065.603.17.934.317.077.035.134.068.202.102l.098.052.118.067.389.227c1.043.607 2.145 1.243 3.271 1.924 1.127.68 2.304 1.363 3.477 2.094l3.568 2.196 3.541 2.238c1.17.733 2.303 1.488 3.41 2.2 1.107.711 2.162 1.423 3.167 2.091 1.007.665 1.949 1.31 2.818 1.906a199.547 199.547 0 0 1 4.172 2.924c.502.355.887.649 1.154.843l.407.302z"/></g><g><path fill="#fff" d="M97.995 20.127l-.74-.415c-.482-.273-1.194-.663-2.09-1.179a555.828 555.828 0 0 1-7.401-4.292 521.875 521.875 0 0 1-4.915-2.917c-1.74-1.042-3.578-2.135-5.464-3.29-1.886-1.154-3.847-2.328-5.82-3.554l-2.982-1.845-.722-.445-.193-.107c-.07-.042-.104-.046-.158-.072-.088-.045-.212-.084-.327-.126a4.84 4.84 0 0 0-1.506-.218 5.069 5.069 0 0 0-1.51.241 3.666 3.666 0 0 0-.666.3l-.74.454-2.984 1.842c-1.971 1.226-3.935 2.397-5.822 3.55s-3.726 2.246-5.466 3.285a521.606 521.606 0 0 1-4.918 2.912 553.256 553.256 0 0 1-7.406 4.285c-.896.515-1.608.904-2.09 1.176l-.741.414.699-.481c.456-.312 1.12-.78 1.977-1.356a556.12 556.12 0 0 1 7.115-4.75c1.477-.975 3.079-2.028 4.783-3.126C49.61 9.31 51.402 8.144 53.27 6.96c1.868-1.184 3.785-2.428 5.756-3.656.984-.616 1.975-1.239 2.97-1.863l.76-.473c.302-.184.62-.32.94-.434a6.447 6.447 0 0 1 1.968-.33c.663.002 1.33.088 1.979.304.299.096.714.29.928.423l.777.485 2.968 1.866c1.969 1.23 3.886 2.475 5.753 3.661 1.868 1.185 3.657 2.354 5.358 3.457 1.704 1.1 3.304 2.155 4.782 3.13a562.239 562.239 0 0 1 7.11 4.756c.857.577 1.52 1.044 1.977 1.357l.699.483z"/></g></g></g></g></svg>