<svg xmlns="http://www.w3.org/2000/svg" width="36" height="41" viewBox="0 0 36 41"><g><g><g><path fill="#e2e5e7" d="M7.714 0a2.575 2.575 0 0 0-2.571 2.563v35.874A2.575 2.575 0 0 0 7.714 41H33.43A2.575 2.575 0 0 0 36 38.437V10.25L25.714 0z"/></g><g><path fill="#b0b7bd" d="M28.286 10.25H36L25.714 0v7.688a2.575 2.575 0 0 0 2.572 2.562z"/></g><g><path fill="#cad1d8" d="M36 17.938l-7.714-7.688H36z"/></g><g><path fill="#84bd5a" d="M30.857 33.313c0 .704-.578 1.28-1.286 1.28H1.286A1.287 1.287 0 0 1 0 33.314V20.5c0-.705.579-1.281 1.286-1.281H29.57c.708 0 1.286.576 1.286 1.281z"/></g><g><g><path fill="#fff" d="M9.027 26.12l1.788-2.232c.535-.697 1.574.193.988.86a59.952 59.952 0 0 0-1.881 2.325l2.097 2.602c.566.769-.565 1.506-1.12.747l-1.893-2.418-1.86 2.47c-.525.748-1.687-.092-1.1-.789l2.066-2.612c-.648-.81-1.276-1.598-1.902-2.326-.647-.768.555-1.556 1.029-.838z"/></g><g><path fill="#fff" d="M13.288 24.276a.64.64 0 0 1 .648-.625c.329 0 .607.288.607.625v5.133h2.796c1.007 0 1.029 1.341 0 1.341h-3.402c-.36 0-.648-.255-.648-.624v-5.85z"/></g><g><path fill="#fff" d="M19.288 25.198c.237-1.988 3.248-2.346 4.667-1.26.7.563-.04 1.455-.658 1.004-.761-.48-2.488-.706-2.704.358-.277 1.68 4.194.718 4.122 3.444-.072 2.602-3.854 2.662-5.274 1.495-.34-.277-.329-.727-.144-1.005.268-.265.565-.357.916-.07.842.573 3.012 1.003 3.165-.453-.132-1.514-4.409-.603-4.09-3.513z"/></g></g><g><path fill="#cad1d8" d="M29.571 34.594H5.143v1.281H29.57c.708 0 1.286-.577 1.286-1.281v-1.282c0 .705-.578 1.282-1.286 1.282z"/></g></g></g></svg>